<?xml version="1.0" encoding="utf-8"?>
<!-- Generator: Adobe Illustrator 22.1.0, SVG Export Plug-In . SVG Version: 6.00 Build 0)  -->
<svg version="1.1" xmlns="http://www.w3.org/2000/svg" xmlns:xlink="http://www.w3.org/1999/xlink" x="0px" y="0px"
	 viewBox="0 0 420 180" style="enable-background:new 0 0 420 180;" xml:space="preserve">
<style type="text/css">
	.st0{fill:#FFFFFF;}
	.st1{fill:#FFFFFF;stroke:#000000;stroke-width:0.5;}
	.st2{fill:#FFFFFF;stroke:#000000;stroke-width:0.5388;}
	.st3{fill:#8FD6FF;}
	.st4{stroke:#000000;stroke-width:0.625;stroke-linejoin:round;}
	.st5{fill:#E10000;}
	.st6{font-family:'Helvetica-Bold';}
	.st7{font-size:17.5px;}
	.st8{display:none;}
	.st9{fill:none;stroke:#000000;stroke-miterlimit:10;}
	.st10{enable-background:new    ;}
	.st11{display:inline;}
	.st12{font-family:'MicrosoftJhengHeiUIBold';}
	.st13{font-size:13.5px;}
	.st14{font-size:13px;}
	.st15{display:inline;enable-background:new    ;}
	.st16{font-size:9px;}
	.st17{font-family:'HelveticaNeue-Roman';}
</style>
<g id="svg8548" inkscape:version="0.91 r13725" sodipodi:docname="coordination.svg" xmlns:cc="http://creativecommons.org/ns#" xmlns:dc="http://purl.org/dc/elements/1.1/" xmlns:inkscape="http://www.inkscape.org/namespaces/inkscape" xmlns:rdf="http://www.w3.org/1999/02/22-rdf-syntax-ns#" xmlns:sodipodi="http://sodipodi.sourceforge.net/DTD/sodipodi-0.dtd" xmlns:svg="http://www.w3.org/2000/svg">
	
		<sodipodi:namedview  bordercolor="#666666" borderopacity="1.0" fit-margin-bottom="0" fit-margin-left="0" fit-margin-right="0" fit-margin-top="0" id="base" inkscape:current-layer="layer6" inkscape:cx="132.31725" inkscape:cy="62.403465" inkscape:document-units="px" inkscape:pageopacity="0.0" inkscape:pageshadow="2" inkscape:window-height="897" inkscape:window-maximized="1" inkscape:window-width="1536" inkscape:window-x="-8" inkscape:window-y="-8" inkscape:zoom="0.98994949" pagecolor="#ffffff" showgrid="false" units="px">
		</sodipodi:namedview>
	<g id="layer6" inkscape:groupmode="layer" inkscape:label="Background">
		<rect id="rect9544" x="-6.1" y="-2.8" class="st0" width="438.4" height="191.9"/>
	</g>
	<g id="layer1" transform="translate(-50.257633,-628.15522)" inkscape:groupmode="layer" inkscape:label="Layer 1">
		<g id="g9517" transform="translate(7.2144097,-7.9276402)">
			
				<ellipse id="path9108" transform="matrix(3.327793e-02 -0.9994 0.9994 3.327793e-02 -640.085 781.3222)" class="st1" cx="83.8" cy="721.5" rx="33.3" ry="33.3"/>
			<circle id="circle9116" class="st1" cx="422.2" cy="774.6" r="33.3"/>
			<g id="g9126" transform="translate(82.832509,1.0101525)">
				<circle id="circle9114" class="st1" cx="337.4" cy="676.6" r="33.3"/>
			</g>
			<g id="g9151">
				<rect id="rect9131" x="207.9" y="666.5" class="st2" width="86.8" height="110.1"/>
				<rect id="rect9142" x="208.5" y="720.8" class="st3" width="85.5" height="18.1"/>
			</g>
			<path id="path5424" inkscape:connector-curvature="0" class="st4" d="M192.9,721.5l12,4.4l-12,4.4
				C194.8,727.7,194.8,724.2,192.9,721.5z"/>
			<path id="path9159" inkscape:connector-curvature="0" class="st4" d="M203.6,725.9"/>
			<path id="path9195" inkscape:connector-curvature="0" class="st4" d="M320.1,722.4l-11.8,2.3l7.5-9.4
				C315.6,718.3,317.3,721.2,320.1,722.4z"/>
			<path id="path9185" inkscape:connector-curvature="0" sodipodi:nodetypes="cc" class="st4" d="M309.4,724"/>
			<path id="path9231" inkscape:connector-curvature="0" class="st4" d="M316.3,740.3l-7.9-9l11.9,1.7
				C317.5,734.3,315.9,737.3,316.3,740.3z"/>
			<path id="path9221" inkscape:connector-curvature="0" sodipodi:nodetypes="cc" class="st4" d="M309.5,731.9"/>
			<text transform="matrix(1 0 0 1 295.4696 735.1743)" class="st5 st6 st7">?</text>
		</g>
	</g>
</g>
<g id="Layer_2" class="st8">
	<image style="display:inline;overflow:visible;" width="420" height="180" xlink:href="D792D1CE.jpg" >
	</image>
</g>
<g id="Layer_3">
	<line class="st9" x1="81.3" y1="90" x2="153" y2="90"/>
	<line class="st9" x1="274.1" y1="83.9" x2="336.8" y2="45.6"/>
	<line class="st9" x1="274.1" y1="99.9" x2="336.8" y2="134"/>
</g>
<g id="outline">
	<g class="st10">
		<path d="M199.5,37.4h-5.1v-1.1h2.1c-0.1-0.4-0.2-0.7-0.4-1l1.2-0.3c0.2,0.5,0.4,1,0.5,1.3h1.7V37.4z M199,39.4h-4.2v-1.1h4.2V39.4
			z M199,41.3h-4.2v-1.1h4.2V41.3z M199,46.5h-1.2v-0.6H196v0.9h-1.2v-4.6h4.2V46.5z M197.9,44.9v-1.5H196v1.5H197.9z M206.1,36.6
			h-2v9.1c0,0.4-0.1,0.6-0.3,0.8c-0.2,0.2-0.5,0.3-0.9,0.3c-0.6,0-1.2,0-1.9,0l-0.4-1.2c0.6,0,1.2,0.1,1.8,0.1
			c0.3,0,0.5-0.1,0.5-0.3v-8.8h-2.9v-1.2h6.2V36.6z"/>
		<path d="M219.3,45.1H214v1.8h-1.2v-1.8h-5.3v-1h5.3v-0.7h-4v-4.5h9.3v4.5H214v0.7h5.3V45.1z M212.9,38.1h-4.6v-2.8h4.6V38.1z
			 M211.7,37.1v-0.8h-2.2v0.8H211.7z M212.8,40.6v-0.8H210v0.8H212.8z M212.8,42.3v-0.8H210v0.8H212.8z M218.5,38.1h-4.5v-2.8h4.5
			V38.1z M216.9,40.6v-0.8H214v0.8H216.9z M216.9,42.3v-0.8H214v0.8H216.9z M217.3,37.1v-0.8h-2.2v0.8H217.3z"/>
	</g>
	<g class="st10">
		<path d="M99.7,109.2l-0.3,1.1c-0.4,0-0.9,0-1.6,0c-2.8,0-4.6-0.1-5.4-0.3c-0.8-0.2-1.5-0.6-2.2-1.2c-0.6,0.8-1.1,1.3-1.6,1.7
			l-0.9-0.9c0.7-0.5,1.3-1.1,1.7-1.7c-0.5-0.7-0.9-1.6-1.2-2.7l1.1-0.4c0.2,0.7,0.4,1.3,0.7,1.8c0.3-0.8,0.4-1.6,0.4-2.5h-2.2v-1.1
			c0.9-1,1.5-2,2-2.9h-2.2V99h3.5v1.1c-0.4,0.8-1,1.8-1.8,2.9h1.9c0,2-0.3,3.6-0.9,4.8c0.8,0.8,1.8,1.2,3,1.2
			c1.2,0.1,2.5,0.1,3.9,0.1C98.3,109.2,99,109.2,99.7,109.2z M99.5,107.8h-3.6v1.1h-1.1v-1.1h-3.2v-1h3.2v-0.8H92v-1h2.7v-0.8h-2.4
			v-0.9h2.4v-0.9h-3.2v-0.9h3.2v-0.9h-2.4v-0.9h2.4v-0.8h1.1v0.8h2.8v1.8h0.8v0.9h-0.8v1.9h-2.8v0.8H99v1h-3.1v0.8h3.6V107.8z
			 M97.6,101.4v-0.9h-1.7v0.9H97.6z M97.6,103.3v-0.9h-1.7v0.9H97.6z"/>
		<path d="M112.7,110.2H101V109h3.4c-0.4-2.4-1-4.5-1.7-6.2l0.9-0.7h-2.2v-1.2h4.9c-0.2-0.6-0.5-1.3-0.9-1.9l1.3-0.4
			c0.4,0.7,0.7,1.5,1,2.3h4.6v1.2H110l1,0.6c-0.3,1.8-0.8,3.9-1.6,6.2h3.4V110.2z M109.8,102.1h-5.9c0.8,2,1.4,4.3,1.8,6.9h2.4
			C108.9,106.4,109.5,104.1,109.8,102.1z"/>
		<path d="M119.3,101.1h-5.1V100h2.1c-0.1-0.4-0.2-0.7-0.4-1l1.2-0.3c0.2,0.5,0.4,1,0.5,1.3h1.7V101.1z M118.8,103h-4.2v-1.1h4.2
			V103z M118.8,105h-4.2v-1.1h4.2V105z M118.9,110.2h-1.2v-0.6h-1.8v0.9h-1.2v-4.6h4.2V110.2z M117.7,108.5V107h-1.8v1.5H117.7z
			 M125.9,100.2h-2v9.1c0,0.4-0.1,0.6-0.3,0.8c-0.2,0.2-0.5,0.3-0.9,0.3c-0.6,0-1.2,0-1.9,0l-0.4-1.2c0.6,0,1.2,0.1,1.8,0.1
			c0.3,0,0.5-0.1,0.5-0.3v-8.8h-2.9v-1.2h6.2V100.2z"/>
		<path d="M139.1,108.7h-5.3v1.8h-1.2v-1.8h-5.3v-1h5.3V107h-4v-4.5h9.3v4.5h-4.1v0.7h5.3V108.7z M132.7,101.8h-4.6V99h4.6V101.8z
			 M131.5,100.8V100h-2.2v0.8H131.5z M132.6,104.3v-0.8h-2.8v0.8H132.6z M132.6,106v-0.8h-2.8v0.8H132.6z M138.3,101.8h-4.5V99h4.5
			V101.8z M136.7,104.3v-0.8h-2.9v0.8H136.7z M136.7,106v-0.8h-2.9v0.8H136.7z M137.1,100.8V100H135v0.8H137.1z"/>
	</g>
	<g class="st10">
		<path d="M293.3,86.2c-0.1,0.7-0.3,1.6-0.8,2.5l-1-0.3c0.2-0.4,0.3-0.8,0.4-1.1h-4.2v0.5l3.3-0.1l0,0.9l-3.4,0.1v0.2
			c0,0.3,0.1,0.4,0.4,0.4h4v0.9h-4.4c-0.3,0-0.6-0.1-0.8-0.3c-0.2-0.2-0.3-0.4-0.3-0.8v-0.4l-1.9,0.1l0-0.9l1.9-0.1v-0.6H284v4
			c0,1.6-0.4,3-1.1,4.2l-0.9-0.7c0.6-1,0.9-2.5,0.9-4.3v-4.3h4V84h1.2v0.6h4.5v0.9H288v0.6H293.3z M293.5,94.3l-0.3,1.1
			c-2.4,0-4,0-4.7-0.1c-0.7-0.1-1.3-0.3-1.9-0.7c-0.4,0.3-1,0.7-1.9,1.1l-0.6-0.9c0.7-0.2,1.2-0.5,1.6-0.8c-0.1-0.1-0.3-0.4-0.5-0.6
			c-0.2,0.2-0.4,0.4-0.5,0.5l-0.6-0.8c0.8-0.9,1.4-1.9,1.7-3l1,0.3c0,0.2-0.1,0.4-0.2,0.6h2v1c-0.4,0.8-0.8,1.5-1.2,1.9
			c0.4,0.2,0.9,0.4,1.3,0.5c0.5,0.1,1.4,0.1,2.8,0.1C292,94.3,292.7,94.3,293.5,94.3z M287.3,91.8h-1.3c-0.1,0.1-0.2,0.3-0.3,0.6
			c0.2,0.3,0.4,0.5,0.8,0.8C286.9,92.7,287.2,92.2,287.3,91.8z M293.3,92.2c0,0.6-0.1,1.1-0.3,1.3c-0.2,0.2-0.5,0.4-1.1,0.4
			c-0.4,0-0.7-0.1-0.9-0.2s-0.3-0.4-0.3-0.6v-1.4h-0.6c0,1.1-0.4,1.9-1,2.4l-0.9-0.6c0.5-0.4,0.8-1.1,0.8-2.1v-0.7h2.7v2
			c0,0.2,0.1,0.3,0.3,0.3c0.1,0,0.2-0.1,0.3-0.2s0.1-0.4,0.1-0.7L293.3,92.2z"/>
		<path d="M298.7,92.6c-1,0.6-2.2,1.2-3.6,1.9l-0.4-1.1c0.3-0.1,0.8-0.4,1.5-0.7v-3.2H295v-1.1h1.3v-2.6h-1.4v-1h3.9v1h-1.3v2.6h1.1
			v1.1h-1.1v2.6c0.4-0.2,0.9-0.4,1.3-0.7L298.7,92.6z M306.1,95.1h-7.4v-1.1h3.2v-1.3h-2.7v-1h2.7v-1.1h-2.7v-6.2h6.4v6.2H303v1.1
			h2.8v1H303v1.3h3.1V95.1z M301.8,87v-1.6h-1.5V87H301.8z M301.8,89.6v-1.7h-1.5v1.7H301.8z M304.5,87v-1.6H303V87H304.5z
			 M304.5,89.6v-1.7H303v1.7H304.5z"/>
		<path d="M312.4,86.3h-4.9v-1.1h2c-0.1-0.4-0.2-0.7-0.4-1l1.2-0.3c0.2,0.5,0.4,0.9,0.5,1.3h1.7V86.3z M311.9,88.2h-4v-1h4V88.2z
			 M311.9,90.1h-4V89h4V90.1z M312,95.1h-1.1v-0.5h-1.7v0.8h-1.1v-4.5h4V95.1z M310.8,93.5V92h-1.7v1.5H310.8z M318.7,85.5h-2v8.7
			c0,0.3-0.1,0.6-0.3,0.8c-0.2,0.2-0.5,0.3-0.8,0.3c-0.6,0-1.2,0-1.8,0l-0.4-1.1c0.6,0,1.2,0.1,1.7,0.1c0.3,0,0.5-0.1,0.5-0.3v-8.5
			h-2.8v-1.1h6V85.5z"/>
		<path d="M331.5,93.7h-5.1v1.7h-1.2v-1.7h-5.1v-1h5.1V92h-3.9v-4.3h9V92h-3.9v0.7h5.1V93.7z M325.3,87h-4.4v-2.7h4.4V87z
			 M324.1,86.1v-0.8H322v0.8H324.1z M325.2,89.4v-0.8h-2.7v0.8H325.2z M325.2,91.1v-0.8h-2.7v0.8H325.2z M330.7,87h-4.4v-2.7h4.4V87
			z M329.2,89.4v-0.8h-2.8v0.8H329.2z M329.2,91.1v-0.8h-2.8v0.8H329.2z M329.5,86.1v-0.8h-2.1v0.8H329.5z"/>
	</g>
	<g class="st10">
		<path d="M351.9,40.6c-1.2,0.3-2.5,0.5-3.8,0.7l-0.2-0.7c0.7-0.1,1.5-0.2,2.5-0.4v-0.7h-2.3v-0.7h2.3v-0.6h0.8V40
			c0.3,0,0.5-0.1,0.7-0.1L351.9,40.6z M355,45.1c0,0.3-0.1,0.5-0.3,0.6c-0.2,0.2-0.4,0.2-0.6,0.2c-0.6,0-1,0-1.2,0l-0.3-0.8
			c0.5,0,0.9,0,1.3,0c0.1,0,0.2-0.1,0.2-0.2v-0.8c-1.4,0.4-2.9,0.7-4.3,0.9l-0.2-0.5c-0.2,0.6-0.6,1.1-0.9,1.4l-0.7-0.5
			c0.7-0.6,1-1.3,1-2.3v-1.8h6V45.1z M354.1,43.5v-1.3h-4.3v0.5c1.3,0,2.5,0.1,3.7,0.2l-0.2,0.7c-1.1-0.1-2.3-0.2-3.5-0.2
			c0,0.3-0.1,0.7-0.1,1.1C351.2,44.2,352.7,43.9,354.1,43.5z M355.8,39.9c0,0.4-0.1,0.7-0.3,0.8c-0.2,0.2-0.5,0.3-0.9,0.3l-1.5,0
			c-0.5,0-0.8-0.3-0.8-0.8v-2h0.8v0.6h2.3v0.7h-2.3v0.7c0,0.1,0.1,0.2,0.2,0.2l1.4,0c0.2,0,0.3-0.2,0.3-0.7L355.8,39.9z"/>
		<path d="M364.6,41.9h-7.9v-0.7h3.5c-0.1-0.1-0.1-0.3-0.2-0.5h-2.4v-2.5h6.2v2.5h-2.9c0.1,0.1,0.1,0.3,0.2,0.5h3.5V41.9z
			 M359.4,44.7c-0.5,0.4-1.2,0.8-2.1,1.2l-0.4-0.6c0.8-0.3,1.4-0.7,2-1.1L359.4,44.7z M363.7,44h-2.6v1.3c0,0.2-0.1,0.4-0.2,0.5
			c-0.2,0.1-0.7,0.2-1.5,0.2l-0.3-0.7c0.2,0,0.4,0,0.6,0c0.2,0,0.4,0,0.5,0c0.1,0,0.2-0.1,0.2-0.2V44h-2.7v-1.6h6.2V44z M362.9,39.2
			v-0.3h-4.5v0.3H362.9z M362.9,40.2v-0.4h-4.5v0.4H362.9z M362.9,43.4V43h-4.5v0.4H362.9z M364.4,45.3l-0.5,0.6
			c-0.6-0.4-1.3-0.8-2-1.1l0.5-0.6C363.2,44.5,363.8,44.9,364.4,45.3z"/>
		<path d="M373.3,45.7h-7.9v-0.8h3.5v-5.6h-3.1v-0.8h7.1v0.8h-3.1v5.6h3.5V45.7z"/>
		<path d="M376.8,38.3c-0.1,0.4-0.3,0.7-0.4,1l-0.4,0.9V46h-0.8v-4.5c-0.2,0.3-0.4,0.6-0.6,0.7l-0.4-0.8c0.7-0.9,1.3-2,1.7-3.3
			L376.8,38.3z M382.1,40h-2.8v1.3h2.6v0.7h-2.6v1.3h2.6v0.7h-2.6V46h-0.8v-6h-0.3c-0.4,0.8-0.9,1.5-1.3,2l-0.6-0.6
			c0.8-0.9,1.4-2.1,1.8-3.4l0.8,0.2c0,0.2-0.2,0.5-0.4,1h3.6V40z"/>
		<path d="M390.5,45.2c0,0.2-0.1,0.4-0.2,0.5c-0.1,0.1-0.2,0.2-0.4,0.3c-0.2,0-0.4,0.1-0.9,0.1c-0.2,0-0.4,0-0.6,0l-0.3-0.7
			c0.7,0,1.2,0,1.3,0c0.1,0,0.2-0.1,0.2-0.2v-0.8h-5c-0.2,0.8-0.5,1.4-1,1.9l-0.7-0.5c0.7-0.6,1-1.6,1-2.8v-2
			c-0.1,0.1-0.3,0.2-0.6,0.4l-0.6-0.7c1.2-0.7,2.2-1.4,2.9-2.4l0.8,0.3c-0.1,0.1-0.2,0.3-0.3,0.4h2.9v0.7c-0.2,0.3-0.5,0.6-0.8,0.9
			h2.1V45.2z M388.1,39.4h-2.4c-0.3,0.3-0.7,0.6-1,0.9h2.6C387.7,39.9,388,39.7,388.1,39.4z M386.9,43.5v-0.9h-2c0,0.2,0,0.5,0,0.9
			H386.9z M386.9,41.9v-0.9h-2v0.9H386.9z M389.7,41.9v-0.9h-2v0.9H389.7z M389.7,43.5v-0.9h-2v0.9H389.7z"/>
		<path d="M399.7,44.1c0,0.5-0.1,0.9-0.3,1.2c-0.2,0.3-0.5,0.5-0.9,0.6c-0.4,0-1.2,0.1-2.5,0.1c-0.6,0-1.1,0-1.6,0
			c-0.5,0-0.8,0-1-0.1c-0.1,0-0.2-0.1-0.3-0.2c-0.1-0.1-0.2-0.2-0.3-0.4c-0.1-0.2-0.1-0.4-0.1-0.6v-3.9c-0.1,0.1-0.3,0.2-0.5,0.4
			l-0.5-0.6c1.2-0.7,2.1-1.5,2.8-2.5l0.8,0.2c-0.1,0.2-0.2,0.3-0.3,0.5h3v0.8c-0.3,0.3-0.7,0.7-1.1,1h2.2v2.8h-5.5v1.4
			c0,0.1,0,0.1,0.1,0.2c0,0.1,0.1,0.1,0.1,0.1s0.3,0,0.8,0h1.7l2,0c0.2,0,0.3-0.1,0.4-0.2c0.1-0.2,0.2-0.5,0.2-1.1L399.7,44.1z
			 M396.8,39.5h-2.5c-0.3,0.4-0.7,0.7-1.1,1h2.5C396.1,40.2,396.5,39.9,396.8,39.5z M395.5,42.6v-1.3h-2v1.3H395.5z M398.3,42.6
			v-1.3h-1.9v1.3H398.3z"/>
		<path d="M405.5,45.6h-0.8V41H403v-0.6c0.2,0,0.4,0,0.6,0s0.4-0.1,0.6-0.2s0.3-0.2,0.4-0.4c0.1-0.2,0.2-0.4,0.2-0.6h0.6V45.6z"/>
	</g>
	<g class="st10">
		<path d="M353.9,137.7c-1.2,0.3-2.5,0.5-3.8,0.7l-0.2-0.7c0.7-0.1,1.5-0.2,2.5-0.4v-0.7h-2.3v-0.7h2.3v-0.6h0.8v1.9
			c0.3,0,0.5-0.1,0.7-0.1L353.9,137.7z M357,142.3c0,0.3-0.1,0.5-0.3,0.6c-0.2,0.2-0.4,0.2-0.6,0.2c-0.6,0-1,0-1.2,0l-0.3-0.8
			c0.5,0,0.9,0,1.3,0c0.1,0,0.2-0.1,0.2-0.2v-0.8c-1.4,0.4-2.9,0.7-4.3,0.9l-0.2-0.5c-0.2,0.6-0.6,1.1-0.9,1.4l-0.7-0.5
			c0.7-0.6,1-1.3,1-2.3v-1.8h6V142.3z M356.2,140.7v-1.3h-4.3v0.5c1.3,0,2.5,0.1,3.7,0.2l-0.2,0.7c-1.1-0.1-2.3-0.2-3.5-0.2
			c0,0.3-0.1,0.7-0.1,1.1C353.2,141.3,354.7,141,356.2,140.7z M357.8,137c0,0.4-0.1,0.7-0.3,0.8c-0.2,0.2-0.5,0.3-0.9,0.3l-1.5,0
			c-0.5,0-0.8-0.3-0.8-0.8v-2h0.8v0.6h2.3v0.7h-2.3v0.7c0,0.1,0.1,0.2,0.2,0.2l1.4,0c0.2,0,0.3-0.2,0.3-0.7L357.8,137z"/>
		<path d="M366.6,139h-7.9v-0.7h3.5c-0.1-0.1-0.1-0.3-0.2-0.5h-2.4v-2.5h6.2v2.5h-2.9c0.1,0.1,0.1,0.3,0.2,0.5h3.5V139z
			 M361.4,141.8c-0.5,0.4-1.2,0.8-2.1,1.2l-0.4-0.6c0.8-0.3,1.4-0.7,2-1.1L361.4,141.8z M365.7,141.1h-2.6v1.3
			c0,0.2-0.1,0.4-0.2,0.5c-0.2,0.1-0.7,0.2-1.5,0.2l-0.3-0.7c0.2,0,0.4,0,0.6,0c0.2,0,0.4,0,0.5,0c0.1,0,0.2-0.1,0.2-0.2v-1.2h-2.7
			v-1.6h6.2V141.1z M364.9,136.4V136h-4.5v0.3H364.9z M364.9,137.3v-0.4h-4.5v0.4H364.9z M364.9,140.5v-0.4h-4.5v0.4H364.9z
			 M366.4,142.4L366,143c-0.6-0.4-1.3-0.8-2-1.1l0.5-0.6C365.2,141.7,365.9,142,366.4,142.4z"/>
		<path d="M375.3,142.8h-7.9V142h3.5v-5.6h-3.1v-0.8h7.1v0.8h-3.1v5.6h3.5V142.8z"/>
		<path d="M378.8,135.4c-0.1,0.4-0.3,0.7-0.4,1l-0.4,0.9v5.9h-0.8v-4.5c-0.2,0.3-0.4,0.6-0.6,0.7l-0.4-0.8c0.7-0.9,1.3-2,1.7-3.3
			L378.8,135.4z M384.1,137.2h-2.8v1.3h2.6v0.7h-2.6v1.3h2.6v0.7h-2.6v1.9h-0.8v-6h-0.3c-0.4,0.8-0.9,1.5-1.3,2l-0.6-0.6
			c0.8-0.9,1.4-2.1,1.8-3.4l0.8,0.2c0,0.2-0.2,0.5-0.4,1h3.6V137.2z"/>
		<path d="M392.5,142.3c0,0.2-0.1,0.4-0.2,0.5c-0.1,0.1-0.2,0.2-0.4,0.3c-0.2,0-0.4,0.1-0.9,0.1c-0.2,0-0.4,0-0.6,0l-0.3-0.7
			c0.7,0,1.2,0,1.3,0c0.1,0,0.2-0.1,0.2-0.2v-0.8h-5c-0.2,0.8-0.5,1.4-1,1.9l-0.7-0.5c0.7-0.6,1-1.6,1-2.8v-2
			c-0.1,0.1-0.3,0.2-0.6,0.4l-0.6-0.7c1.2-0.7,2.2-1.4,2.9-2.4l0.8,0.3c-0.1,0.1-0.2,0.3-0.3,0.4h2.9v0.7c-0.2,0.3-0.5,0.6-0.8,0.9
			h2.1V142.3z M390.2,136.6h-2.4c-0.3,0.3-0.7,0.6-1,0.9h2.6C389.7,137.1,390,136.8,390.2,136.6z M388.9,140.7v-0.9h-2
			c0,0.2,0,0.5,0,0.9H388.9z M388.9,139.1v-0.9h-2v0.9H388.9z M391.7,139.1v-0.9h-2v0.9H391.7z M391.7,140.7v-0.9h-2v0.9H391.7z"/>
		<path d="M401.7,141.2c0,0.5-0.1,0.9-0.3,1.2c-0.2,0.3-0.5,0.5-0.9,0.6c-0.4,0-1.2,0.1-2.5,0.1c-0.6,0-1.1,0-1.6,0
			c-0.5,0-0.8,0-1-0.1c-0.1,0-0.2-0.1-0.3-0.2c-0.1-0.1-0.2-0.2-0.3-0.4c-0.1-0.2-0.1-0.4-0.1-0.6V138c-0.1,0.1-0.3,0.2-0.5,0.4
			l-0.5-0.6c1.2-0.7,2.1-1.5,2.8-2.5l0.8,0.2c-0.1,0.2-0.2,0.3-0.3,0.5h3v0.8c-0.3,0.3-0.7,0.7-1.1,1h2.2v2.8h-5.5v1.4
			c0,0.1,0,0.1,0.1,0.2c0,0.1,0.1,0.1,0.1,0.1s0.3,0,0.8,0h1.7l2,0c0.2,0,0.3-0.1,0.4-0.2c0.1-0.2,0.2-0.5,0.2-1.1L401.7,141.2z
			 M398.8,136.6h-2.5c-0.3,0.4-0.7,0.7-1.1,1h2.5C398.2,137.3,398.5,137,398.8,136.6z M397.5,139.7v-1.3h-2v1.3H397.5z M400.3,139.7
			v-1.3h-1.9v1.3H400.3z"/>
		<path d="M404.7,138.6c0-0.3,0-0.6,0.1-0.9c0.1-0.3,0.2-0.5,0.4-0.7c0.2-0.2,0.4-0.4,0.7-0.5c0.3-0.1,0.6-0.2,0.9-0.2
			c0.3,0,0.5,0,0.8,0.1s0.5,0.2,0.6,0.4c0.2,0.2,0.3,0.3,0.4,0.6c0.1,0.2,0.2,0.5,0.2,0.8c0,0.3,0,0.5-0.1,0.7s-0.2,0.4-0.3,0.6
			c-0.1,0.2-0.3,0.3-0.5,0.5c-0.2,0.1-0.4,0.3-0.6,0.4c-0.2,0.1-0.4,0.2-0.6,0.4c-0.2,0.1-0.4,0.2-0.5,0.4s-0.3,0.3-0.4,0.4
			c-0.1,0.2-0.2,0.3-0.2,0.5h3.3v0.7h-4.2c0-0.4,0.1-0.7,0.2-1c0.1-0.3,0.2-0.5,0.4-0.7c0.2-0.2,0.3-0.4,0.5-0.5
			c0.2-0.1,0.4-0.3,0.6-0.4c0.3-0.2,0.5-0.3,0.7-0.5c0.2-0.1,0.4-0.3,0.5-0.4s0.2-0.3,0.3-0.5c0.1-0.2,0.1-0.4,0.1-0.6
			c0-0.2,0-0.3-0.1-0.5s-0.2-0.3-0.3-0.4c-0.1-0.1-0.2-0.2-0.4-0.2c-0.1-0.1-0.3-0.1-0.5-0.1c-0.2,0-0.4,0-0.6,0.1
			c-0.2,0.1-0.3,0.2-0.4,0.4c-0.1,0.2-0.2,0.3-0.2,0.5c0,0.2-0.1,0.4-0.1,0.6H404.7z"/>
	</g>
	<g>
		<path d="M177.7,89.4h-5.1v-1.1h2.1c-0.1-0.4-0.2-0.7-0.4-1l1.2-0.3c0.2,0.5,0.4,1,0.5,1.3h1.7V89.4z M177.3,91.4h-4.2v-1.1h4.2
			V91.4z M177.3,93.3h-4.2v-1.1h4.2V93.3z M177.3,98.5h-1.2v-0.6h-1.8v0.9h-1.2v-4.6h4.2V98.5z M176.1,96.9v-1.5h-1.8v1.5H176.1z
			 M184.3,88.6h-2v9.1c0,0.4-0.1,0.6-0.3,0.8c-0.2,0.2-0.5,0.3-0.9,0.3c-0.6,0-1.2,0-1.9,0l-0.4-1.2c0.6,0,1.2,0.1,1.8,0.1
			c0.3,0,0.5-0.1,0.5-0.3v-8.8h-2.9v-1.2h6.2V88.6z"/>
		<path d="M197.5,97.1h-5.3v1.8h-1.2v-1.8h-5.3v-1h5.3v-0.7h-4v-4.5h9.3v4.5h-4.1v0.7h5.3V97.1z M191.1,90.1h-4.6v-2.8h4.6V90.1z
			 M189.9,89.1v-0.8h-2.2v0.8H189.9z M191.1,92.6v-0.8h-2.8v0.8H191.1z M191.1,94.3v-0.8h-2.8v0.8H191.1z M196.7,90.1h-4.5v-2.8h4.5
			V90.1z M195.1,92.6v-0.8h-2.9v0.8H195.1z M195.1,94.3v-0.8h-2.9v0.8H195.1z M195.5,89.1v-0.8h-2.2v0.8H195.5z"/>
		<path d="M203.2,95.4h-1.3v-0.9h1.4l0.3-2h-1.4v-0.9h1.5l0.4-2.8h0.9l-0.4,2.8h1.7l0.4-2.8h0.9l-0.4,2.8h1.2v0.9h-1.3l-0.3,2h1.2
			v0.9h-1.4l-0.4,2.8h-0.9l0.4-2.8h-1.7l-0.4,2.8h-0.9L203.2,95.4z M204.5,92.4l-0.3,2h1.7l0.3-2H204.5z"/>
		<path d="M213.4,98.2h-1.1v-6.9h-2.5v-0.9c0.3,0,0.6,0,0.9-0.1c0.3,0,0.6-0.1,0.8-0.3c0.2-0.1,0.5-0.3,0.6-0.6
			c0.2-0.2,0.3-0.5,0.4-0.9h0.9V98.2z"/>
		<path d="M216.3,92c0-0.5,0-0.9,0.2-1.4c0.1-0.4,0.3-0.8,0.6-1.1c0.3-0.3,0.6-0.5,1-0.7c0.4-0.2,0.8-0.3,1.3-0.3
			c0.4,0,0.8,0.1,1.2,0.2c0.4,0.1,0.7,0.3,1,0.5c0.3,0.2,0.5,0.5,0.6,0.9c0.2,0.3,0.2,0.7,0.2,1.2c0,0.4-0.1,0.8-0.2,1.1
			c-0.1,0.3-0.3,0.6-0.5,0.9c-0.2,0.3-0.5,0.5-0.7,0.7s-0.6,0.4-0.9,0.6c-0.3,0.2-0.6,0.4-0.9,0.5s-0.6,0.4-0.8,0.6
			c-0.2,0.2-0.5,0.4-0.6,0.6c-0.2,0.2-0.3,0.5-0.3,0.8h4.9v1h-6.3c0-0.6,0.1-1.1,0.3-1.5s0.4-0.7,0.6-1c0.2-0.3,0.5-0.6,0.8-0.8
			s0.6-0.4,1-0.6c0.4-0.3,0.8-0.5,1.1-0.7c0.3-0.2,0.6-0.4,0.8-0.6c0.2-0.2,0.4-0.4,0.5-0.7s0.2-0.5,0.2-0.9c0-0.3,0-0.5-0.1-0.7
			c-0.1-0.2-0.2-0.4-0.4-0.5c-0.2-0.2-0.4-0.3-0.6-0.4c-0.2-0.1-0.5-0.1-0.7-0.1c-0.3,0-0.6,0.1-0.9,0.2s-0.4,0.3-0.6,0.5
			c-0.2,0.2-0.3,0.5-0.3,0.8c-0.1,0.3-0.1,0.6-0.1,0.9H216.3z"/>
		<path d="M225.9,92.7c0.1,0,0.2,0,0.3,0s0.2,0,0.2,0c0.2,0,0.5,0,0.7-0.1c0.2-0.1,0.4-0.2,0.6-0.3c0.2-0.1,0.3-0.3,0.4-0.5
			c0.1-0.2,0.1-0.4,0.1-0.7c0-0.5-0.2-0.9-0.5-1.1c-0.3-0.3-0.7-0.4-1.2-0.4c-0.3,0-0.6,0.1-0.8,0.2c-0.2,0.1-0.4,0.3-0.6,0.5
			c-0.1,0.2-0.3,0.4-0.3,0.7c-0.1,0.3-0.1,0.5-0.1,0.8h-1.1c0-0.5,0.1-0.9,0.2-1.3s0.3-0.7,0.6-1c0.2-0.3,0.5-0.5,0.9-0.6
			s0.8-0.2,1.3-0.2c0.4,0,0.8,0.1,1.2,0.2s0.7,0.3,0.9,0.5c0.3,0.2,0.5,0.5,0.6,0.8c0.1,0.3,0.2,0.7,0.2,1.1c0,0.4-0.1,0.8-0.4,1.1
			c-0.3,0.3-0.6,0.6-0.9,0.8v0c0.6,0.1,1,0.4,1.3,0.8c0.3,0.4,0.4,0.9,0.4,1.5c0,0.5-0.1,0.9-0.3,1.3c-0.2,0.4-0.4,0.7-0.7,0.9
			c-0.3,0.2-0.6,0.4-1,0.6c-0.4,0.1-0.8,0.2-1.3,0.2c-0.5,0-0.9-0.1-1.3-0.2c-0.4-0.1-0.7-0.3-1-0.6c-0.3-0.3-0.5-0.6-0.6-1
			c-0.1-0.4-0.2-0.8-0.2-1.3h1.1c0,0.6,0.2,1.1,0.5,1.5c0.3,0.4,0.8,0.6,1.5,0.6c0.3,0,0.5,0,0.8-0.1c0.3-0.1,0.5-0.2,0.7-0.4
			c0.2-0.2,0.3-0.4,0.5-0.6s0.2-0.5,0.2-0.8c0-0.3-0.1-0.6-0.2-0.8c-0.1-0.2-0.3-0.4-0.4-0.6c-0.2-0.2-0.4-0.3-0.6-0.4
			c-0.3-0.1-0.5-0.1-0.8-0.1c-0.2,0-0.5,0-0.7,0V92.7z"/>
	</g>
</g>
<g id="text" class="st8">
	<text transform="matrix(1 0 0 1 193.4212 46.1665)" class="st11 st12 st13">訂單</text>
	<text transform="matrix(1 0 0 1 86.9271 109.8285)" class="st11 st12 st13">建立訂單</text>
	<text transform="matrix(1 0 0 1 281.2084 94.7465)" class="st11 st12 st14">處理訂單</text>
	<text transform="matrix(1 0 0 1 347.3273 45.5533)" class="st15"><tspan x="0" y="0" class="st12 st16">背景工作角色</tspan><tspan x="52.6" y="0" class="st17 st16"> </tspan><tspan x="54.9" y="0" class="st17 st16">1</tspan></text>
	<text transform="matrix(1 0 0 1 349.348 142.6783)" class="st15"><tspan x="0" y="0" class="st12 st16">背景工作角色</tspan><tspan x="52.6" y="0" class="st17 st16"> </tspan><tspan x="54.9" y="0" class="st17 st16">2</tspan></text>
	<text transform="matrix(1 0 0 1 171.6667 98.1667)" class="st11"><tspan x="0" y="0" class="st12 st13">訂單</tspan><tspan x="26.3" y="0" class="st17 st13"> #123 </tspan></text>
</g>
</svg>
