<?xml version="1.0" encoding="utf-8"?>
<!-- Generator: Adobe Illustrator 22.1.0, SVG Export Plug-In . SVG Version: 6.00 Build 0)  -->
<svg version="1.1" xmlns="http://www.w3.org/2000/svg" xmlns:xlink="http://www.w3.org/1999/xlink" x="0px" y="0px"
	 viewBox="0 0 354.3 217.9" style="enable-background:new 0 0 354.3 217.9;" xml:space="preserve">
<style type="text/css">
	.st0{fill:#FFFFFF;}
	.st1{fill:#0078D7;}
	.st2{fill:#ED9292;}
	.st3{fill:none;}
	.st4{fill:#29354A;}
	.st5{fill:none;stroke:#313131;}
	.st6{stroke:#000000;stroke-width:0.625;stroke-linejoin:round;}
	.st7{fill:none;stroke:#313131;stroke-width:1.0884;}
	.st8{fill:none;stroke:#000000;}
	.st9{fill:#FFFFFF;stroke:#000000;stroke-miterlimit:10;}
	.st10{display:none;}
	.st11{display:inline;}
	.st12{font-family:'MicrosoftJhengHeiUIBold';}
	.st13{font-size:12.5px;}
	.st14{font-family:'HelveticaNeue-Roman';}
	.st15{font-size:15px;}
	.st16{display:inline;enable-background:new    ;}
	.st17{font-family:'MicrosoftJhengHeiUIRegular';}
	.st18{enable-background:new    ;}
</style>
<g id="svg2" inkscape:version="0.91 r13725" sodipodi:docname="database-lock.svg" xmlns:cc="http://creativecommons.org/ns#" xmlns:dc="http://purl.org/dc/elements/1.1/" xmlns:inkscape="http://www.inkscape.org/namespaces/inkscape" xmlns:rdf="http://www.w3.org/1999/02/22-rdf-syntax-ns#" xmlns:sodipodi="http://sodipodi.sourceforge.net/DTD/sodipodi-0.dtd" xmlns:svg="http://www.w3.org/2000/svg">
	
		<sodipodi:namedview  bordercolor="#666666" borderopacity="1.0" fit-margin-bottom="0" fit-margin-left="0" fit-margin-right="0" fit-margin-top="0" id="base" inkscape:current-layer="g8060" inkscape:cx="67.857141" inkscape:cy="44.15732" inkscape:document-units="px" inkscape:pageopacity="0.0" inkscape:pageshadow="2" inkscape:window-height="801" inkscape:window-maximized="1" inkscape:window-width="1536" inkscape:window-x="-8" inkscape:window-y="-8" inkscape:zoom="1.4" pagecolor="#ffffff" showgrid="false" units="px">
		</sodipodi:namedview>
	<g id="layer1" transform="translate(-41.854622,-629.40924)" inkscape:groupmode="layer" inkscape:label="Layer 1">
		<g id="Layer_1-6" transform="matrix(1.57723,0,0,1.57723,126.27098,652.10663)">
			<g id="Azure">
			</g>
			<g id="BizTalk_Services" transform="translate(37.3575,-2500.2)">
			</g>
			<g id="Key_Vault">
			</g>
			<g id="Mobile_Engagement">
			</g>
			<g id="Office_subscription">
				<g id="Office_subscription_1_">
				</g>
			</g>
		</g>
		<g id="Layer_57" transform="matrix(1.57723,0,0,1.57723,126.27098,652.10663)">
		</g>
		<rect id="rect8170" x="41.9" y="629.4" class="st0" width="354.3" height="217.9"/>
	</g>
	<g id="layer2" transform="translate(-41.854622,-57.047085)" inkscape:groupmode="layer" inkscape:label="VMs">
		<g id="Layer_1" transform="translate(-25.706573,19.313864)">
		</g>
		<g id="g5197" transform="translate(-27.726878,131.4408)">
		</g>
		<g id="g8060" transform="translate(5.4953999,-7.3235531)">
			<g id="paths" transform="matrix(1.57723,0,0,1.57723,230.98892,98.69099)">
				<g id="Access_control">
				</g>
				<g id="Azure_active_directory">
				</g>
				<g id="API_Management">
				</g>
				<g id="Azure_automation">
				</g>
				<g id="Azure_SQL_database">
				</g>
				<g id="Azure_subscription">
				</g>
				<g id="Backup_service">
				</g>
				<g id="Bitbucket_code_source">
				</g>
				<g id="Azure_cache">
				</g>
				<g id="Content_delivery_network__x28_CDN_x29_">
				</g>
				<g id="Cloud_service">
				</g>
				<g id="CodePlex">
				</g>
				<g id="Dropbox_code_source">
				</g>
				<g id="Express_route">
				</g>
				<g id="Git_repository">
				</g>
				<g id="GitHub_code">
				</g>
				<g id="HD_Insight">
				</g>
				<g id="Health_monitoring">
				</g>
				<g id="Healthy">
				</g>
				<g id="BizTalk_hybrid_connection">
				</g>
				<g id="Hybrid_connection_manager_for_BizTalk_hybrid_connection">
				</g>
				<g id="Hyper-V_recovery_manager">
				</g>
				<g id="Machine_learning">
				</g>
				<g id="Media_services">
				</g>
				<g id="Microsoft_account">
				</g>
				<g id="Mobile_services">
				</g>
				<g id="Multi-factor_authentication">
				</g>
				<g id="MySQL_database">
				</g>
				<g id="Notification_hub">
				</g>
				<g id="Notification_topic">
				</g>
				<g id="Cloud_Office_365">
				</g>
				<g id="Office_365">
				</g>
				<g id="OS_image">
				</g>
				<g id="Remote_app">
				</g>
				<g id="Task_scheduler">
				</g>
				<g id="Azure_SDK">
				</g>
				<g id="Service_bus">
				</g>
				<g id="Service_bus_queue">
				</g>
				<g id="Service_bus_relay">
				</g>
				<g id="Service_bus_topic">
				</g>
				<g id="Service_endpoint">
				</g>
				<g id="Custom_create">
				</g>
				<g id="SQL_data_sync">
				</g>
				<g id="g55">
					<path id="path57" inkscape:connector-curvature="0" class="st1" d="M78.3,57c-0.1-0.2-0.3-0.3-0.4-0.5
						c-0.2-0.1-0.4-0.2-0.6-0.2c-0.3,0-0.5,0.1-0.7,0.2c-0.2,0.1-0.3,0.3-0.5,0.4c-0.1,0.2-0.2,0.4-0.3,0.6
						c-0.1,0.2-0.1,0.5-0.1,0.8c0,0.4,0,0.7,0.1,0.9c0.1,0.3,0.2,0.5,0.3,0.6c0.1,0.2,0.3,0.3,0.5,0.3c0.2,0.1,0.4,0.1,0.6,0.1
						s0.4,0,0.5-0.1c0.2-0.1,0.3-0.2,0.5-0.4c0.1-0.2,0.2-0.4,0.3-0.6c0.1-0.2,0.1-0.5,0.1-0.9c0-0.3,0-0.5-0.1-0.8
						C78.5,57.4,78.4,57.2,78.3,57L78.3,57z"/>
					<path id="path59" inkscape:connector-curvature="0" class="st1" d="M77,37.9c-8,0-14.4,2.7-14.4,5.7v27c0,3,6.5,5.8,14.4,5.8
						c8,0,14.4-2.7,14.4-5.7v-27C91.5,40.7,85,37.9,77,37.9z M72.7,60.5c0,0.2-0.1,0.4-0.2,0.6c-0.1,0.2-0.2,0.4-0.4,0.5
						c-0.2,0.2-0.4,0.3-0.6,0.4c-0.2,0.1-0.5,0.2-0.9,0.3c-0.3,0.1-0.7,0.1-1.2,0.1c-0.2,0-0.5,0-0.7,0s-0.4,0-0.6-0.1
						c-0.2,0-0.4-0.1-0.5-0.1c-0.2,0-0.3-0.1-0.4-0.2v-2.1c0.1,0.1,0.3,0.2,0.5,0.3s0.3,0.2,0.5,0.3s0.4,0.1,0.6,0.2
						c0.2,0.1,0.4,0.1,0.6,0.1s0.3,0,0.4-0.1c0.1,0,0.2-0.1,0.2-0.1c0.1,0,0.1-0.1,0.1-0.2c0-0.1,0-0.1,0-0.2c0-0.1,0-0.2-0.1-0.3
						c-0.1-0.1-0.1-0.2-0.2-0.2c-0.1-0.1-0.2-0.1-0.4-0.2c-0.2-0.1-0.3-0.1-0.5-0.2c-0.3-0.1-0.6-0.3-0.9-0.5
						c-0.2-0.2-0.4-0.3-0.6-0.5c-0.2-0.2-0.3-0.4-0.3-0.6C67,57.5,67,57.2,67,57c0-0.4,0.1-0.7,0.2-1c0.2-0.3,0.4-0.6,0.6-0.8
						c0.3-0.2,0.6-0.4,1-0.5s0.8-0.2,1.3-0.2c0.3,0,0.5,0,0.7,0s0.4,0,0.6,0.1c0.2,0,0.3,0.1,0.5,0.1s0.3,0.1,0.4,0.1v2
						c-0.1-0.1-0.2-0.1-0.4-0.2c-0.1-0.1-0.3-0.1-0.5-0.2c-0.2-0.1-0.3-0.1-0.5-0.1s-0.4,0-0.6,0c-0.3,0-0.5,0-0.6,0.1
						c-0.2,0.1-0.2,0.2-0.2,0.4c0,0.1,0,0.2,0.1,0.2c0,0.1,0.1,0.1,0.2,0.2c0.1,0.1,0.2,0.1,0.3,0.2c0.1,0.1,0.3,0.1,0.5,0.2
						c0.3,0.1,0.6,0.3,0.9,0.4c0.3,0.2,0.5,0.3,0.7,0.5s0.3,0.4,0.5,0.6c0.1,0.2,0.2,0.5,0.2,0.9C72.8,60.1,72.7,60.3,72.7,60.5z
						 M78.6,64.3l-1.7-1.8c-0.5,0-1-0.2-1.4-0.3c-0.4-0.2-0.8-0.5-1.1-0.8c-0.3-0.3-0.6-0.7-0.8-1.2c-0.2-0.5-0.3-1-0.3-1.6
						s0.1-1.2,0.3-1.7c0.2-0.5,0.5-0.9,0.8-1.3c0.3-0.4,0.8-0.6,1.2-0.8c0.5-0.2,1-0.3,1.6-0.3s1.1,0.1,1.5,0.3
						c0.5,0.2,0.9,0.5,1.2,0.8c0.3,0.3,0.6,0.8,0.8,1.2c0.2,0.5,0.3,1,0.3,1.7c0,0.4,0,0.9-0.2,1.2c-0.1,0.4-0.3,0.7-0.5,1
						s-0.4,0.6-0.7,0.8c-0.3,0.2-0.5,0.4-0.9,0.6l2.6,2.2H78.6L78.6,64.3z M87.2,62.3h-5v-7.7h2.3v5.9h2.7V62.3z M77,46.3
						c-5.7,0-10.3-1.4-10.3-3.1c0-1.7,4.6-3.1,10.3-3.1c5.7,0,10.3,1.4,10.3,3.1C87.3,44.9,82.7,46.3,77,46.3z"/>
				</g>
			</g>
			<rect id="rect6243" x="228" y="146.4" class="st2" width="80.6" height="12.9"/>
			<rect id="rect6245" x="227.7" y="214.3" class="st2" width="81.3" height="19.3"/>
			<g id="g7468">
				<path id="path7472" inkscape:connector-curvature="0" class="st3" d="M309.9,154.2v-12.9h12.9h12.9v12.9v12.9h-12.9h-12.9V154.2
					L309.9,154.2z"/>
				<path id="path7470" inkscape:connector-curvature="0" class="st3" d="M314.8,166.9c-0.6-0.3-0.8-0.6-1-1.1
					c-0.2-0.5-0.2-1.3-0.2-6.5l0-5.9l0.4-0.5c0.5-0.6,0.8-0.8,1.6-0.8l0.7-0.1l0.1-3c0.1-2.2,0.1-3.2,0.3-3.6
					c0.8-2.1,2.7-3.6,5.1-3.9c3.2-0.5,6.2,1.2,7.2,3.9c0.1,0.4,0.2,1.4,0.3,3.6l0.1,3l0.7,0.1c0.9,0.1,1.2,0.2,1.6,0.8l0.4,0.5
					l0,5.9c0,6.7,0,6.7-0.8,7.4l-0.5,0.4l-7.8,0C316.1,167.1,315.2,167.1,314.8,166.9L314.8,166.9z M324.5,162.9
					c0-0.3-0.1-1.1-0.2-1.9l-0.2-1.4l0.4-0.5c0.4-0.5,0.4-0.6,0.4-1.3c0-0.6-0.1-0.8-0.3-1.1c-0.9-1.3-2.5-1.3-3.5,0
					c-0.2,0.3-0.3,0.6-0.3,1.1c0,0.7,0.1,0.8,0.4,1.3c0.2,0.3,0.4,0.6,0.4,0.7s-0.1,0.9-0.3,1.7s-0.2,1.6-0.2,1.7
					c0.1,0.2,0.3,0.2,1.7,0.2l1.6,0L324.5,162.9L324.5,162.9z M326.5,149.3c0-1.5,0-2.8,0-3.1c-0.3-1.4-2.5-2.5-4.3-2.1
					c-1,0.2-1.4,0.4-2,1c-0.8,0.7-0.8,0.8-0.8,3.9c0,1.5,0,2.9,0.1,2.9c0,0,1.7,0.1,3.6,0.1l3.5,0L326.5,149.3L326.5,149.3z"/>
			</g>
			<g id="g7515" transform="translate(-7.213203,-0.01663144)">
				<g id="g7474" transform="matrix(0.45003489,0,0,0.45003489,177.30552,82.501783)">
					<path id="path7476" inkscape:connector-curvature="0" class="st4" d="M317.6,169c-0.6-0.3-0.8-0.6-1-1.1
						c-0.2-0.5-0.2-1.3-0.2-6.5l0-5.9l0.4-0.5c0.5-0.6,0.8-0.8,1.6-0.8l0.7-0.1l0.1-3c0.1-2.2,0.1-3.2,0.3-3.6
						c0.8-2.1,2.7-3.6,5.1-3.9c3.2-0.5,6.2,1.2,7.2,3.9c0.1,0.4,0.2,1.4,0.3,3.6l0.1,3l0.7,0.1c0.9,0.1,1.2,0.2,1.6,0.8l0.4,0.5
						l0,5.9c0,6.7,0,6.7-0.8,7.4l-0.5,0.4l-7.8,0C318.9,169.2,317.9,169.2,317.6,169L317.6,169z M327.2,165.1c0-0.3-0.1-1.1-0.2-1.9
						l-0.2-1.4l0.4-0.5c0.4-0.5,0.4-0.6,0.4-1.3c0-0.6-0.1-0.8-0.3-1.1c-0.9-1.3-2.5-1.3-3.5,0c-0.2,0.3-0.3,0.6-0.3,1.1
						c0,0.7,0.1,0.8,0.4,1.3c0.2,0.3,0.4,0.6,0.4,0.7s-0.1,0.9-0.3,1.7s-0.2,1.6-0.2,1.7c0.1,0.2,0.3,0.2,1.7,0.2l1.6,0L327.2,165.1
						L327.2,165.1z M329.2,151.5c0-1.5,0-2.8,0-3.1c-0.3-1.4-2.5-2.5-4.3-2.1c-1,0.2-1.4,0.4-2,1c-0.8,0.7-0.8,0.8-0.8,3.9
						c0,1.5,0,2.9,0.1,2.9c0,0,1.7,0.1,3.6,0.1l3.5,0L329.2,151.5L329.2,151.5z"/>
				</g>
				<path id="path7476-2" inkscape:connector-curvature="0" class="st0" d="M323.8,153.6c-0.3,0-0.6,0.1-0.8,0.4
					c-0.1,0.1-0.1,0.3-0.1,0.5c0,0.3,0,0.4,0.2,0.6c0.1,0.1,0.2,0.3,0.2,0.3c0,0.1-0.1,0.4-0.1,0.8s-0.1,0.7-0.1,0.8
					c0,0.1,0.1,0.1,0.7,0.1l0.7,0l0-0.2c0-0.1-0.1-0.5-0.1-0.8l-0.1-0.6l0.2-0.2c0.2-0.2,0.2-0.3,0.2-0.6c0-0.3,0-0.4-0.1-0.5
					C324.4,153.7,324.1,153.6,323.8,153.6L323.8,153.6z"/>
			</g>
			<g id="g7520" transform="translate(-8.4758941,71.054809)">
				<g id="g7522" transform="matrix(0.45003489,0,0,0.45003489,177.30552,82.501783)">
					<path id="path7524" inkscape:connector-curvature="0" class="st4" d="M317.6,169c-0.6-0.3-0.8-0.6-1-1.1
						c-0.2-0.5-0.2-1.3-0.2-6.5l0-5.9l0.4-0.5c0.5-0.6,0.8-0.8,1.6-0.8l0.7-0.1l0.1-3c0.1-2.2,0.1-3.2,0.3-3.6
						c0.8-2.1,2.7-3.6,5.1-3.9c3.2-0.5,6.2,1.2,7.2,3.9c0.1,0.4,0.2,1.4,0.3,3.6l0.1,3l0.7,0.1c0.9,0.1,1.2,0.2,1.6,0.8l0.4,0.5
						l0,5.9c0,6.7,0,6.7-0.8,7.4l-0.5,0.4l-7.8,0C318.9,169.2,317.9,169.2,317.6,169L317.6,169z M327.2,165.1c0-0.3-0.1-1.1-0.2-1.9
						l-0.2-1.4l0.4-0.5c0.4-0.5,0.4-0.6,0.4-1.3c0-0.6-0.1-0.8-0.3-1.1c-0.9-1.3-2.5-1.3-3.5,0c-0.2,0.3-0.3,0.6-0.3,1.1
						c0,0.7,0.1,0.8,0.4,1.3c0.2,0.3,0.4,0.6,0.4,0.7s-0.1,0.9-0.3,1.7s-0.2,1.6-0.2,1.7c0.1,0.2,0.3,0.2,1.7,0.2l1.6,0L327.2,165.1
						L327.2,165.1z M329.2,151.5c0-1.5,0-2.8,0-3.1c-0.3-1.4-2.5-2.5-4.3-2.1c-1,0.2-1.4,0.4-2,1c-0.8,0.7-0.8,0.8-0.8,3.9
						c0,1.5,0,2.9,0.1,2.9c0,0,1.7,0.1,3.6,0.1l3.5,0L329.2,151.5L329.2,151.5z"/>
				</g>
				<path id="path7526" inkscape:connector-curvature="0" class="st0" d="M323.8,153.6c-0.3,0-0.6,0.1-0.8,0.4
					c-0.1,0.1-0.1,0.3-0.1,0.5c0,0.3,0,0.4,0.2,0.6c0.1,0.1,0.2,0.3,0.2,0.3c0,0.1-0.1,0.4-0.1,0.8s-0.1,0.7-0.1,0.8
					c0,0.1,0.1,0.1,0.7,0.1l0.7,0l0-0.2c0-0.1-0.1-0.5-0.1-0.8l-0.1-0.6l0.2-0.2c0.2-0.2,0.2-0.3,0.2-0.6c0-0.3,0-0.4-0.1-0.5
					C324.4,153.7,324.1,153.6,323.8,153.6L323.8,153.6z"/>
			</g>
			<g id="g5342">
				
					<ellipse id="path5124" transform="matrix(0.9985 -5.530038e-02 5.530038e-02 0.9985 -5.9115 4.9155)" class="st5" cx="85.9" cy="109.3" rx="36.4" ry="36.4"/>
				<g id="Ibiza_Symbols" transform="translate(-28.737032,20.324009)">
					<g id="g6">
						<path id="path8" inkscape:connector-curvature="0" class="st1" d="M131,71.7H97.9c-1.1,0-2,1-2,2.1v23.1c0,1.1,0.9,2.1,2,2.1
							h11.3c1.2,4.3-0.4,4.9-7.6,4.9v2.3h9.1h6.7h8.6v-2.3c-7.2,0-7.9-0.6-6.7-4.9H131c1.1,0,2.3-1,2.3-2.1V73.8
							C133.3,72.7,132.1,71.7,131,71.7z M130.4,74.5v21.6H98.7V74.5H130.4L130.4,74.5z"/>
						<g id="group975-1984_1_" transform="translate(1176.51,-2762.63)">
							<title  id="title11">Sheet.975</title>
							<g id="shape976-1985_2_" transform="translate(0.8685,-17.652)">
								<title  id="title14">Sheet.976</title>
								<path id="path16" inkscape:connector-curvature="0" class="st1" d="M-1057.4,2861.6l-5.8-3.3l-5.8,3.3v0.1l5.8,3.3
									L-1057.4,2861.6L-1057.4,2861.6L-1057.4,2861.6z"/>
							</g>
							<g id="shape977-1987_1_" transform="translate(15.8925,0)">
								<title  id="title19">Sheet.977</title>
								<path id="path21" inkscape:connector-curvature="0" class="st1" d="M-1077.6,2848.3v6.6l5.8-3.3v-6.6L-1077.6,2848.3z"/>
							</g>
							<g id="shape978-1989_1_">
								<title  id="title24">Sheet.978</title>
								<path id="path26" inkscape:connector-curvature="0" class="st1" d="M-1062.9,2848.3l-5.8-3.3v6.6l5.8,3.3V2848.3z"/>
							</g>
						</g>
					</g>
				</g>
			</g>
			<g id="g5377">
				<g id="g5360">
					
						<ellipse id="path5124-6" transform="matrix(0.9985 -5.530038e-02 5.530038e-02 0.9985 -12.0842 5.0863)" class="st5" cx="85.9" cy="220.9" rx="36.4" ry="36.4"/>
					<g id="g5199" transform="translate(-28.737032,131.9459)">
						<g id="g5201">
							<path id="path5203" inkscape:connector-curvature="0" class="st1" d="M131,71.7H97.9c-1.1,0-2,1-2,2.1v23.1
								c0,1.1,0.9,2.1,2,2.1h11.3c1.2,4.3-0.4,4.9-7.6,4.9v2.3h9.1h6.7h8.6v-2.3c-7.2,0-7.9-0.6-6.7-4.9H131c1.1,0,2.3-1,2.3-2.1
								V73.8C133.3,72.7,132.1,71.7,131,71.7z M130.4,74.5v21.6H98.7V74.5H130.4L130.4,74.5z"/>
							<g id="g5205" transform="translate(1176.51,-2762.63)">
								<title  id="title5207">Sheet.975</title>
								<g id="g5209" transform="translate(0.8685,-17.652)">
									<title  id="title5211">Sheet.976</title>
									<path id="path5213" inkscape:connector-curvature="0" class="st1" d="M-1057.4,2861.6l-5.8-3.3l-5.8,3.3v0.1l5.8,3.3
										L-1057.4,2861.6L-1057.4,2861.6L-1057.4,2861.6z"/>
								</g>
								<g id="g5215" transform="translate(15.8925,0)">
									<title  id="title5217">Sheet.977</title>
									<path id="path5219" inkscape:connector-curvature="0" class="st1" d="M-1077.6,2848.3v6.6l5.8-3.3v-6.6L-1077.6,2848.3z"/>
								</g>
								<g id="g5221">
									<title  id="title5223">Sheet.978</title>
									<path id="path5225" inkscape:connector-curvature="0" class="st1" d="M-1062.9,2848.3l-5.8-3.3v6.6l5.8,3.3V2848.3z"/>
								</g>
							</g>
						</g>
					</g>
				</g>
			</g>
			<path id="path5424" inkscape:connector-curvature="0" class="st6" d="M212.5,144.9l9.6,8.5l-12.8-0.3
				C212,151.4,213.3,148,212.5,144.9z"/>
			<path id="path5397" inkscape:connector-curvature="0" class="st6" d="M220.8,152.9"/>
			<path id="path5689" inkscape:connector-curvature="0" class="st6" d="M211.2,217.4l12,4.4l-12,4.5
				C213.1,223.6,213.1,220,211.2,217.4z"/>
			<path id="path5685" inkscape:connector-curvature="0" sodipodi:nodetypes="cc" class="st6" d="M221.9,221.8"/>
			<rect id="rect6099" x="228.3" y="125.4" class="st5" width="80.8" height="49.5"/>
			<rect id="rect6105" x="228.3" y="194.1" class="st7" width="80.7" height="58.7"/>
			<path id="path7998" inkscape:connector-curvature="0" sodipodi:nodetypes="cc" class="st8" d="M268.7,175.7v17.9"/>
		</g>
	</g>
	<line class="st9" x1="90" y1="51.5" x2="177.1" y2="85.7"/>
	<line class="st9" x1="90.5" y1="157.4" x2="177.8" y2="157.4"/>
</g>
<g id="Layer_2" class="st10">
	
		<image style="display:inline;overflow:visible;" width="354" height="217" xlink:href="4A28D06D.jpg"  transform="matrix(1 0 0 1 0.1429 -0.5714)">
	</image>
</g>
<g id="text" class="st10">
	<text transform="matrix(1 0 0 1 219.5961 73.1322)" class="st11 st12 st13">訂單</text>
	<text transform="matrix(1 0 0 1 196.257 142.0756)" class="st11 st14 st13">OrderItems</text>
	<text transform="matrix(1 0 0 1 118.6249 58.1899)" class="st11 st12 st15">更新</text>
	<text transform="matrix(1 0 0 1 26.6075 98.5672)" class="st16"><tspan x="0" y="0" class="st12 st15">節點</tspan><tspan x="30" y="0" class="st14 st15"> </tspan><tspan x="34.2" y="0" class="st14 st15">1</tspan></text>
	<text transform="matrix(1 0 0 1 104.4127 146.5936)" class="st11 st12 st15">更新</text>
	<text transform="matrix(1 0 0 1 102.253 183.5469)" class="st16"><tspan x="0" y="0" class="st14 st15">(</tspan><tspan x="3.7" y="0" class="st12 st15">已封鎖</tspan><tspan x="48.3" y="0" class="st14 st15">)</tspan></text>
	<text transform="matrix(1 0 0 1 26.8172 210.297)" class="st16"><tspan x="0" y="0" class="st12 st15">節點</tspan><tspan x="30" y="0" class="st17 st15"> </tspan><tspan x="33.8" y="0" class="st14 st15">2</tspan></text>
</g>
<g id="outline">
	<g class="st18">
		<path d="M225.2,65h-4.7v-1h1.9c-0.1-0.3-0.2-0.7-0.4-0.9l1.2-0.3c0.2,0.5,0.4,0.9,0.4,1.2h1.6V65z M224.8,66.8h-3.9v-1h3.9V66.8z
			 M224.8,68.6h-3.9v-1h3.9V68.6z M224.8,73.4h-1.1v-0.5H222v0.8h-1.1v-4.3h3.9V73.4z M223.7,71.9v-1.4H222v1.4H223.7z M231.3,64.2
			h-1.9v8.4c0,0.3-0.1,0.6-0.3,0.8c-0.2,0.2-0.5,0.3-0.8,0.3c-0.5,0-1.1,0-1.8,0l-0.4-1.1c0.6,0,1.1,0.1,1.7,0.1
			c0.3,0,0.4-0.1,0.4-0.2v-8.2h-2.7v-1.1h5.7V64.2z"/>
		<path d="M243.9,72.1H239v1.6h-1.1v-1.6H233v-0.9h4.9v-0.7h-3.7v-4.2h8.6v4.2H239v0.7h4.9V72.1z M237.9,65.7h-4.2v-2.6h4.2V65.7z
			 M236.8,64.8V64h-2.1v0.8H236.8z M237.9,68v-0.7h-2.6V68H237.9z M237.9,69.6v-0.7h-2.6v0.7H237.9z M243.1,65.7h-4.2v-2.6h4.2V65.7
			z M241.6,68v-0.7H239V68H241.6z M241.6,69.6v-0.7H239v0.7H241.6z M242,64.8V64h-2v0.8H242z"/>
	</g>
	<g class="st18">
		<path d="M196.7,137.6c0-0.6,0.1-1.2,0.3-1.8c0.2-0.6,0.4-1.1,0.8-1.5c0.4-0.4,0.8-0.8,1.3-1c0.5-0.3,1.2-0.4,1.9-0.4
			s1.3,0.1,1.9,0.4c0.5,0.3,1,0.6,1.3,1c0.4,0.4,0.6,0.9,0.8,1.5c0.2,0.6,0.3,1.1,0.3,1.8c0,0.6-0.1,1.2-0.3,1.8
			c-0.2,0.6-0.4,1.1-0.8,1.5c-0.4,0.4-0.8,0.8-1.3,1c-0.5,0.3-1.2,0.4-1.9,0.4s-1.3-0.1-1.9-0.4c-0.5-0.3-1-0.6-1.3-1
			c-0.4-0.4-0.6-0.9-0.8-1.5C196.8,138.8,196.7,138.2,196.7,137.6z M197.9,137.6c0,0.5,0.1,0.9,0.2,1.3c0.1,0.4,0.3,0.8,0.5,1.2
			c0.3,0.4,0.6,0.6,1,0.8c0.4,0.2,0.9,0.3,1.4,0.3s1-0.1,1.4-0.3c0.4-0.2,0.7-0.5,1-0.8c0.3-0.3,0.4-0.7,0.6-1.2
			c0.1-0.4,0.2-0.9,0.2-1.3c0-0.4-0.1-0.9-0.2-1.3c-0.1-0.4-0.3-0.8-0.6-1.2c-0.3-0.4-0.6-0.6-1-0.8c-0.4-0.2-0.9-0.3-1.4-0.3
			s-1,0.1-1.4,0.3c-0.4,0.2-0.7,0.5-1,0.8c-0.3,0.3-0.4,0.7-0.5,1.2C198,136.7,197.9,137.2,197.9,137.6z"/>
		<path d="M206.5,135.6h1v1.4h0c0.3-0.5,0.6-0.9,0.9-1.2s0.9-0.4,1.4-0.3v1.1c-0.4,0-0.8,0.1-1.1,0.2c-0.3,0.1-0.5,0.3-0.7,0.5
			c-0.2,0.2-0.3,0.5-0.4,0.8c-0.1,0.3-0.1,0.7-0.1,1.1v2.9h-1.1V135.6z"/>
		<path d="M216.5,142.1h-1.1v-0.9h0c-0.2,0.4-0.4,0.6-0.8,0.8s-0.8,0.2-1.2,0.2c-0.5,0-0.9-0.1-1.3-0.3c-0.4-0.2-0.7-0.4-0.9-0.7
			c-0.2-0.3-0.4-0.7-0.6-1.1s-0.2-0.8-0.2-1.3s0.1-0.9,0.2-1.3c0.1-0.4,0.3-0.8,0.5-1.1c0.2-0.3,0.6-0.6,0.9-0.7
			c0.4-0.2,0.8-0.3,1.3-0.3c0.2,0,0.3,0,0.5,0s0.4,0.1,0.6,0.2s0.4,0.2,0.5,0.3s0.3,0.3,0.4,0.5h0v-3.3h1.1V142.1z M211.5,138.9
			c0,0.3,0,0.6,0.1,0.9c0.1,0.3,0.2,0.5,0.4,0.8c0.2,0.2,0.4,0.4,0.6,0.5c0.3,0.1,0.6,0.2,0.9,0.2c0.4,0,0.7-0.1,0.9-0.2
			s0.5-0.3,0.6-0.6c0.2-0.2,0.3-0.5,0.3-0.8c0.1-0.3,0.1-0.6,0.1-0.9c0-0.3,0-0.6-0.1-0.9s-0.2-0.6-0.4-0.8
			c-0.2-0.2-0.4-0.4-0.6-0.5c-0.3-0.1-0.6-0.2-0.9-0.2c-0.4,0-0.7,0.1-0.9,0.2c-0.2,0.1-0.4,0.3-0.6,0.6c-0.1,0.2-0.3,0.5-0.3,0.8
			C211.5,138.3,211.5,138.6,211.5,138.9z"/>
		<path d="M223.6,140c-0.1,0.7-0.5,1.3-0.9,1.6s-1.1,0.6-1.8,0.6c-0.5,0-1-0.1-1.3-0.3s-0.7-0.4-1-0.7c-0.3-0.3-0.5-0.7-0.6-1.1
			c-0.1-0.4-0.2-0.9-0.2-1.4c0-0.5,0.1-0.9,0.2-1.3s0.4-0.8,0.6-1.1c0.3-0.3,0.6-0.5,1-0.7s0.8-0.3,1.2-0.3c0.6,0,1.1,0.1,1.4,0.4
			c0.4,0.2,0.7,0.5,0.9,0.9c0.2,0.4,0.4,0.8,0.5,1.2c0.1,0.4,0.1,0.8,0.1,1.2h-4.8c0,0.3,0,0.6,0.1,0.8c0.1,0.3,0.2,0.5,0.4,0.7
			c0.2,0.2,0.4,0.4,0.6,0.5c0.3,0.1,0.6,0.2,0.9,0.2c0.4,0,0.8-0.1,1.1-0.3c0.3-0.2,0.5-0.5,0.6-1H223.6z M222.6,138.2
			c0-0.3-0.1-0.5-0.2-0.7s-0.2-0.4-0.4-0.6c-0.2-0.2-0.4-0.3-0.6-0.4c-0.2-0.1-0.5-0.1-0.7-0.1c-0.3,0-0.5,0-0.7,0.1
			s-0.4,0.2-0.6,0.4c-0.2,0.2-0.3,0.4-0.4,0.6c-0.1,0.2-0.1,0.5-0.2,0.7H222.6z"/>
		<path d="M224.8,135.6h1v1.4h0c0.3-0.5,0.6-0.9,0.9-1.2s0.9-0.4,1.4-0.3v1.1c-0.4,0-0.8,0.1-1.1,0.2c-0.3,0.1-0.5,0.3-0.7,0.5
			c-0.2,0.2-0.3,0.5-0.4,0.8c-0.1,0.3-0.1,0.7-0.1,1.1v2.9h-1.1V135.6z"/>
		<path d="M229.2,133.2h1.2v8.9h-1.2V133.2z"/>
		<path d="M233.7,135.6h1.3v0.9h-1.3v4c0,0.1,0,0.2,0,0.3c0,0.1,0.1,0.1,0.1,0.2c0.1,0,0.1,0.1,0.2,0.1s0.2,0,0.4,0h0.5v0.9h-0.8
			c-0.3,0-0.5,0-0.7-0.1c-0.2,0-0.4-0.1-0.5-0.2c-0.1-0.1-0.2-0.2-0.3-0.4c-0.1-0.2-0.1-0.4-0.1-0.7v-4.1h-1.1v-0.9h1.1v-1.9h1.1
			V135.6z"/>
		<path d="M241.7,140c-0.1,0.7-0.5,1.3-0.9,1.6s-1.1,0.6-1.8,0.6c-0.5,0-1-0.1-1.3-0.3c-0.4-0.2-0.7-0.4-1-0.7
			c-0.3-0.3-0.5-0.7-0.6-1.1c-0.1-0.4-0.2-0.9-0.2-1.4c0-0.5,0.1-0.9,0.2-1.3c0.2-0.4,0.4-0.8,0.6-1.1c0.3-0.3,0.6-0.5,1-0.7
			c0.4-0.2,0.8-0.3,1.2-0.3c0.6,0,1.1,0.1,1.4,0.4c0.4,0.2,0.7,0.5,0.9,0.9c0.2,0.4,0.4,0.8,0.5,1.2c0.1,0.4,0.1,0.8,0.1,1.2H237
			c0,0.3,0,0.6,0.1,0.8c0.1,0.3,0.2,0.5,0.4,0.7c0.2,0.2,0.4,0.4,0.6,0.5c0.3,0.1,0.6,0.2,0.9,0.2c0.4,0,0.8-0.1,1.1-0.3
			c0.3-0.2,0.5-0.5,0.6-1H241.7z M240.7,138.2c0-0.3-0.1-0.5-0.2-0.7s-0.2-0.4-0.4-0.6c-0.2-0.2-0.4-0.3-0.6-0.4
			c-0.2-0.1-0.5-0.1-0.7-0.1c-0.3,0-0.5,0-0.7,0.1s-0.4,0.2-0.6,0.4c-0.2,0.2-0.3,0.4-0.4,0.6c-0.1,0.2-0.1,0.5-0.2,0.7H240.7z"/>
		<path d="M242.9,135.6h1v1h0c0.5-0.7,1.2-1.1,2.1-1.1c0.4,0,0.8,0.1,1.1,0.3s0.6,0.5,0.7,0.8c0.2-0.3,0.5-0.6,0.9-0.8
			c0.4-0.2,0.7-0.3,1.2-0.3c0.3,0,0.6,0,0.9,0.1c0.3,0.1,0.5,0.2,0.7,0.3c0.2,0.1,0.3,0.3,0.4,0.6s0.2,0.5,0.2,0.9v4.7h-1.1v-4.2
			c0-0.2,0-0.4,0-0.6s-0.1-0.3-0.2-0.5c-0.1-0.1-0.2-0.2-0.4-0.3c-0.2-0.1-0.4-0.1-0.6-0.1c-0.5,0-0.9,0.1-1.2,0.5
			c-0.3,0.3-0.5,0.7-0.5,1.2v4h-1.1v-4.2c0-0.2,0-0.4-0.1-0.6c0-0.2-0.1-0.3-0.2-0.5s-0.2-0.2-0.4-0.3c-0.2-0.1-0.4-0.1-0.6-0.1
			c-0.3,0-0.6,0.1-0.8,0.2s-0.4,0.3-0.5,0.5c-0.1,0.2-0.2,0.4-0.3,0.5s-0.1,0.3-0.1,0.5v4h-1.1V135.6z"/>
		<path d="M254.2,140c0,0.2,0.1,0.4,0.2,0.6c0.1,0.2,0.2,0.3,0.4,0.4c0.2,0.1,0.3,0.2,0.5,0.2c0.2,0,0.4,0.1,0.6,0.1
			c0.2,0,0.3,0,0.5,0c0.2,0,0.4-0.1,0.5-0.1c0.2-0.1,0.3-0.2,0.4-0.3c0.1-0.1,0.1-0.3,0.1-0.5c0-0.2-0.1-0.4-0.2-0.5
			c-0.1-0.1-0.3-0.2-0.5-0.3c-0.2-0.1-0.4-0.2-0.7-0.2c-0.3-0.1-0.5-0.1-0.8-0.2c-0.3-0.1-0.5-0.1-0.8-0.2c-0.3-0.1-0.5-0.2-0.7-0.3
			c-0.2-0.1-0.4-0.3-0.5-0.5c-0.1-0.2-0.2-0.5-0.2-0.8c0-0.3,0.1-0.6,0.2-0.8c0.1-0.2,0.3-0.4,0.6-0.6c0.2-0.1,0.5-0.3,0.8-0.3
			c0.3-0.1,0.6-0.1,0.9-0.1c0.4,0,0.7,0,1,0.1s0.6,0.2,0.8,0.3c0.2,0.2,0.4,0.4,0.6,0.6c0.1,0.3,0.2,0.6,0.3,1h-1.1
			c0-0.2-0.1-0.4-0.2-0.5s-0.2-0.2-0.3-0.3c-0.1-0.1-0.3-0.1-0.5-0.2c-0.2,0-0.3-0.1-0.5-0.1c-0.2,0-0.3,0-0.5,0
			c-0.2,0-0.3,0.1-0.4,0.1c-0.1,0.1-0.2,0.1-0.3,0.3c-0.1,0.1-0.1,0.2-0.1,0.4c0,0.2,0.1,0.3,0.2,0.5c0.1,0.1,0.3,0.2,0.5,0.3
			s0.4,0.1,0.7,0.2c0.3,0.1,0.5,0.1,0.8,0.2c0.3,0.1,0.5,0.1,0.8,0.2c0.3,0.1,0.5,0.2,0.7,0.3c0.2,0.1,0.4,0.3,0.5,0.5
			c0.1,0.2,0.2,0.5,0.2,0.8c0,0.4-0.1,0.7-0.2,1c-0.2,0.3-0.4,0.5-0.6,0.6s-0.6,0.3-0.9,0.3s-0.7,0.1-1,0.1c-0.4,0-0.7,0-1-0.1
			c-0.3-0.1-0.6-0.2-0.9-0.4s-0.4-0.4-0.6-0.7s-0.2-0.6-0.3-1H254.2z"/>
	</g>
	<g class="st18">
		<path d="M132.9,57.7l-0.6,1.2c-3.1-0.1-5.6-0.6-7.6-1.5c-1.4,0.8-3,1.3-4.7,1.5l-0.6-1.2c1.6-0.2,2.9-0.5,3.9-1
			c-0.7-0.4-1.4-0.9-1.9-1.5l1-0.8c0.8,0.7,1.4,1.2,2,1.4c0.5-0.4,0.8-1,0.8-1.8h-4.5v-5.9h4.7v-1h-5.8v-1.2h12.8v1.2h-5.7v1h4.6
			v5.9h-4.8c-0.1,1-0.4,1.8-0.9,2.4C127.6,57.3,130,57.6,132.9,57.7z M125.5,50.6v-1.1h-3.4v1.1H125.5z M125.5,51.8h-3.3V53h3.3
			C125.4,52.9,125.5,52.5,125.5,51.8z M130.1,53v-1.2h-3.3c0,0.4,0,0.8,0,1.2H130.1z M130.1,50.6v-1.1h-3.3v1.1H130.1z"/>
		<path d="M136.7,54.9c-0.5,1.3-1,2.3-1.5,3l-1.1-0.8c0.5-0.7,1-1.7,1.4-2.7L136.7,54.9z M141.2,54h-2.8v5h-1.3v-5h-2.8v-1.2h2.8
			v-1.2h-2.6v-1.2h1.5c-0.1-0.5-0.4-1.1-0.6-1.7l0.9-0.5h-1.7V47h2.4c-0.1-0.3-0.2-0.6-0.5-0.9l1.4-0.3c0.3,0.5,0.4,0.9,0.6,1.2h2.5
			v1.2h-1.6l0.9,0.5c-0.2,0.6-0.5,1.2-0.8,1.7h1.5v1.2h-2.6v1.2h2.8V54z M139,48.2h-2.4c0.3,0.7,0.6,1.5,0.8,2.2h0.8
			C138.5,49.7,138.7,48.9,139,48.2z M140.9,56.3l-1.1,0.6c-0.2-0.8-0.5-1.5-1-2.2l1.1-0.5C140.4,55,140.8,55.7,140.9,56.3z
			 M147.3,51.6H146v7.3h-1.3v-7.3h-1.5c0,3.4-0.6,5.9-1.7,7.3l-1.1-0.9c1-1.3,1.5-3.3,1.5-6v-5.1c1.7-0.2,3.1-0.6,4.2-1.1l0.9,1.1
			c-1.1,0.5-2.4,0.9-3.8,1.1v2.3h4.2V51.6z"/>
	</g>
	<g class="st18">
		<path d="M34,88.5h-3.9c-0.5,0.7-1,1.3-1.6,1.8l-0.9-1c1-0.9,1.8-1.9,2.3-3.1l1.4,0.2c-0.1,0.2-0.2,0.5-0.4,0.9H34V88.5z
			 M34.4,98.5L33.2,99c-0.2-0.5-0.3-0.8-0.4-1c-1.5,0.6-2.9,1-4.2,1.2l-0.5-1c0.2-0.1,0.3-0.3,0.3-0.5v-7h5.5v4.9h-4.2v2.2
			c0.7-0.2,1.5-0.4,2.6-0.7c0-0.2-0.2-0.4-0.4-0.6l1.2-0.5C33.8,97,34.2,97.9,34.4,98.5z M32.6,92.5v-0.7h-2.9v0.7H32.6z M32.6,94.4
			v-0.8h-2.9v0.8H32.6z M32.8,90l-1.4,0.4c-0.2-0.5-0.5-0.9-0.7-1.2l1.4-0.4C32.4,89.2,32.7,89.7,32.8,90z M40.7,88.5h-4.6
			c-0.4,0.7-0.9,1.3-1.4,1.9l-1-0.9c0.8-0.8,1.6-1.9,2.1-3.4l1.4,0.2c-0.1,0.2-0.2,0.5-0.4,0.9h3.9V88.5z M40.1,97
			c0,0.4-0.1,0.7-0.4,0.9c-0.2,0.2-0.5,0.3-0.9,0.3c-0.6,0-1,0-1.3,0L37,96.9c0.3,0,0.6,0.1,1,0.1c0.4,0,0.6,0,0.7-0.1
			c0.1,0,0.1-0.1,0.1-0.2v-4.8h-2.4v7.5H35v-8.7h5V97z M38.8,89.9l-1.3,0.4c-0.2-0.3-0.4-0.7-0.7-1.2l1.3-0.4
			C38.4,89.1,38.6,89.5,38.8,89.9z"/>
		<path d="M44.3,96.4c-0.1,1.2-0.3,2.2-0.7,3l-1.1-0.5c0.3-1,0.5-1.9,0.6-2.8L44.3,96.4z M49.2,95.9h-6.6v-1.2h2.7v-1H43v-1.1h2.4
			v-0.8H43v-5.2h5.9v5.2h-2.3v0.8h2.3v1.1h-2.3v1h2.7V95.9z M45.4,90.7v-3.1H44v3.1H45.4z M45.1,90.2l-0.6,0.2
			c0-0.8-0.1-1.5-0.3-2.1l0.6-0.2C44.9,88.7,45,89.4,45.1,90.2z M45.9,99.1l-1.1,0.1c0-0.7-0.1-1.6-0.3-2.7l1.1-0.1
			C45.8,97.2,45.9,98.1,45.9,99.1z M47.7,98.8L46.6,99c-0.1-0.7-0.3-1.6-0.6-2.5l1.1-0.1C47.4,97.1,47.6,97.9,47.7,98.8z M47.9,90.7
			v-3.1h-1.3v3.1H47.9z M47.7,88.2c-0.1,0.8-0.2,1.5-0.4,2.2l-0.6-0.2c0.2-0.6,0.3-1.4,0.4-2.2L47.7,88.2z M49.3,98.4l-1.1,0.3
			c-0.1-0.7-0.3-1.5-0.6-2.3l1-0.2C49,96.8,49.2,97.6,49.3,98.4z M55.7,89.8h-3v2.5h2.5v7.1h-1.3v-0.8H51v0.8h-1.3v-7.1h1.7v-6h1.3
			v2.2h3V89.8z M53.9,97.2v-3.7H51v3.7H53.9z"/>
		<path d="M66.1,98.6h-1.3v-7.6h-2.8v-1c0.4,0,0.7,0,1-0.1c0.3-0.1,0.6-0.2,0.9-0.3c0.3-0.1,0.5-0.4,0.7-0.6c0.2-0.3,0.3-0.6,0.4-1
			h1V98.6z"/>
	</g>
	<g class="st18">
		<path d="M118.7,146.1l-0.6,1.2c-3.1-0.1-5.6-0.6-7.6-1.5c-1.4,0.8-3,1.3-4.7,1.5l-0.6-1.2c1.6-0.2,2.9-0.5,3.9-1
			c-0.7-0.4-1.4-0.9-1.9-1.5l1-0.8c0.8,0.7,1.4,1.2,2,1.4c0.5-0.4,0.8-1,0.8-1.8h-4.5v-5.9h4.7v-1h-5.8v-1.2h12.8v1.2h-5.7v1h4.6
			v5.9h-4.8c-0.1,1-0.4,1.8-0.9,2.4C113.4,145.7,115.8,146,118.7,146.1z M111.3,139v-1.1H108v1.1H111.3z M111.2,140.2H108v1.2h3.3
			C111.2,141.3,111.2,140.9,111.2,140.2z M115.9,141.4v-1.2h-3.3c0,0.4,0,0.8,0,1.2H115.9z M115.9,139v-1.1h-3.3v1.1H115.9z"/>
		<path d="M122.5,143.3c-0.5,1.3-1,2.3-1.5,3l-1.1-0.8c0.5-0.7,1-1.7,1.4-2.7L122.5,143.3z M127,142.4h-2.8v5h-1.3v-5h-2.8v-1.2h2.8
			v-1.2h-2.6v-1.2h1.5c-0.1-0.5-0.4-1.1-0.6-1.7l0.9-0.5h-1.7v-1.2h2.4c-0.1-0.3-0.2-0.6-0.5-0.9l1.4-0.3c0.3,0.5,0.4,0.9,0.6,1.2
			h2.5v1.2h-1.6l0.9,0.5c-0.2,0.6-0.5,1.2-0.8,1.7h1.5v1.2h-2.6v1.2h2.8V142.4z M124.8,136.6h-2.4c0.3,0.7,0.6,1.5,0.8,2.2h0.8
			C124.3,138.1,124.5,137.3,124.8,136.6z M126.7,144.7l-1.1,0.6c-0.2-0.8-0.5-1.5-1-2.2l1.1-0.5
			C126.2,143.4,126.5,144.1,126.7,144.7z M133.1,140h-1.4v7.3h-1.3V140h-1.5c0,3.4-0.6,5.9-1.7,7.3l-1.1-0.9c1-1.3,1.5-3.3,1.5-6
			v-5.1c1.7-0.2,3.1-0.6,4.2-1.1l0.9,1.1c-1.1,0.5-2.4,0.9-3.8,1.1v2.3h4.2V140z"/>
	</g>
	<g class="st18">
		<path d="M105.3,186.5c-0.7-1.1-1.3-2.2-1.7-3.4c-0.4-1.1-0.6-2.3-0.6-3.7c0-1.2,0.2-2.4,0.6-3.6c0.4-1.2,1-2.3,1.8-3.3h1
			c-0.7,1.1-1.2,2.3-1.5,3.4c-0.3,1.1-0.4,2.3-0.4,3.5c0,1.3,0.2,2.5,0.5,3.6c0.3,1.1,0.8,2.3,1.5,3.4H105.3z"/>
		<path d="M120,180.4c0,1.5-0.2,2.5-0.5,3c-0.3,0.5-0.8,0.7-1.3,0.7s-1.9,0-3.8,0c-0.9,0-1.7,0-2.5,0s-1.4,0-1.9-0.1
			c-0.5,0-0.8-0.1-0.9-0.2c-0.1-0.1-0.3-0.2-0.4-0.3c-0.1-0.1-0.2-0.3-0.3-0.5c-0.1-0.2-0.1-0.4-0.1-0.7v-7.6h1.4v1.6h7.9v-3.6
			h-10.1v-1.3h11.5v6.2h-9.2v4.5c0,0.3,0.1,0.5,0.4,0.5c0.3,0,2.2,0.1,5.9,0.1c1.2,0,1.9,0,2.1-0.1c0.2,0,0.4-0.2,0.5-0.6
			c0.1-0.3,0.2-1.1,0.2-2.3L120,180.4z"/>
		<path d="M128.8,182.7c-1.6,0.5-3.7,1-6.5,1.5l-0.4-1.2l2.9-0.6v-2.2h-2.5V179h2.5v-1.3h1.3v1.3h2.3v1.2h-2.3v1.9
			c1.1-0.3,2-0.5,2.7-0.7V182.7z M128.8,177.3h-6.8v-1.2h2.9v-1.7h-2.5v-1.2h2.5v-1.9h1.3v1.9h2.3v1.2h-2.3v1.7h2.6V177.3z
			 M135,175.3h-1.1v7.8c0,0.3-0.1,0.6-0.3,0.8c-0.2,0.2-0.4,0.3-0.6,0.4c-0.2,0.1-0.7,0.1-1.5,0.1c-0.4,0-0.8,0-1.1,0l-0.5-1.4
			c0.5,0,1.3,0,2.4,0c0.2,0,0.3-0.1,0.3-0.3v-7.4h-3.7V174h3.7v-2.8h1.3v2.8h1.1V175.3z M131.8,180l-1.2,0.7
			c-0.3-1.3-0.8-2.5-1.4-3.6l1.1-0.6C131,177.6,131.5,178.8,131.8,180z"/>
		<path d="M142.6,173.7l-0.8,1c-0.6-0.7-1.3-1.3-2-1.8c-0.2,0.4-0.7,1-1.3,1.7h3v1.2h-1.1v1.1h1.9v1.2h-1.9v3.9
			c0.5-0.1,1.2-0.4,2.1-0.6l0.1,1.2c-1.4,0.5-3.2,1-5.5,1.5l-0.3-1.2c0.7-0.1,1.5-0.3,2.3-0.5v-4.2h-2.1V177h2.1v-1.1h-1.2v-0.6
			c-0.3,0.2-0.5,0.4-0.6,0.5l-0.6-1.1c1.1-0.9,2-2.1,2.7-3.4l1.2,0.4c0,0.1-0.1,0.2-0.2,0.4C141.3,172.5,142,173.1,142.6,173.7z
			 M138.5,181.9l-1.1,0.4c-0.1-1.4-0.3-2.4-0.5-3.1l1.1-0.4C138.3,179.9,138.5,181,138.5,181.9z M142.2,179
			c-0.1,0.8-0.3,1.6-0.6,2.4l-1-0.3c0.3-0.9,0.5-1.7,0.5-2.4L142.2,179z M149.1,181.6h-4.3l0.9,0.6c-0.9,0.9-1.9,1.6-3,2.1l-0.9-1
			c1.2-0.5,2.1-1.1,2.7-1.7h-1.5v-6.8h2.4v-3.6h1.3v3.6h2.5V181.6z M144.7,173.9l-1.2,0.6c-0.3-0.8-0.7-1.5-1.3-2.2l1.1-0.6
			C143.9,172.3,144.4,173.1,144.7,173.9z M147.9,176.7V176h-3.6v0.7H147.9z M147.9,178.6v-0.8h-3.6v0.8H147.9z M147.9,180.5v-0.8
			h-3.6v0.8H147.9z M150,183.4l-0.8,1c-0.8-0.6-1.7-1.1-2.6-1.5l0.8-1C148.4,182.3,149.3,182.8,150,183.4z M149.7,171.9
			c-0.3,0.9-0.7,1.7-1.3,2.5l-1.2-0.5c0.6-0.9,1-1.7,1.2-2.4L149.7,171.9z"/>
		<path d="M150.4,186.5c0.7-1.1,1.2-2.3,1.5-3.4c0.3-1.1,0.5-2.3,0.5-3.5c0-1.3-0.2-2.5-0.5-3.6c-0.3-1.1-0.8-2.3-1.5-3.4h1
			c0.4,0.6,0.7,1.1,1,1.7c0.3,0.6,0.5,1.1,0.7,1.7s0.4,1.2,0.5,1.8c0.1,0.6,0.2,1.2,0.2,1.9c0,1.2-0.2,2.4-0.6,3.6
			c-0.4,1.2-1,2.3-1.8,3.3H150.4z"/>
	</g>
	<g class="st18">
		<path d="M34.2,200.2h-3.9c-0.5,0.7-1,1.3-1.6,1.8l-0.9-1c1-0.9,1.8-1.9,2.3-3.1l1.4,0.2c-0.1,0.2-0.2,0.5-0.4,0.9h3.2V200.2z
			 M34.6,210.3l-1.2,0.5c-0.2-0.5-0.3-0.8-0.4-1c-1.5,0.6-2.9,1-4.2,1.2l-0.5-1c0.2-0.1,0.3-0.3,0.3-0.5v-7h5.5v4.9h-4.2v2.2
			c0.7-0.2,1.5-0.4,2.6-0.7c0-0.2-0.2-0.4-0.4-0.6l1.2-0.5C34,208.7,34.4,209.6,34.6,210.3z M32.8,204.2v-0.7h-2.9v0.7H32.8z
			 M32.8,206.1v-0.8h-2.9v0.8H32.8z M33,201.7l-1.4,0.4c-0.2-0.5-0.5-0.9-0.7-1.2l1.4-0.4C32.7,201,32.9,201.4,33,201.7z
			 M40.9,200.2h-4.6c-0.4,0.7-0.9,1.3-1.4,1.9l-1-0.9c0.8-0.8,1.6-1.9,2.1-3.4l1.4,0.2c-0.1,0.2-0.2,0.5-0.4,0.9h3.9V200.2z
			 M40.3,208.7c0,0.4-0.1,0.7-0.4,0.9c-0.2,0.2-0.5,0.3-0.9,0.3c-0.6,0-1,0-1.3,0l-0.5-1.3c0.3,0,0.6,0.1,1,0.1c0.4,0,0.6,0,0.7-0.1
			c0.1,0,0.1-0.1,0.1-0.2v-4.8h-2.4v7.5h-1.3v-8.7h5V208.7z M39,201.7l-1.3,0.4c-0.2-0.3-0.4-0.7-0.7-1.2l1.3-0.4
			C38.6,200.8,38.8,201.2,39,201.7z"/>
		<path d="M44.5,208.2c-0.1,1.2-0.3,2.2-0.7,3l-1.1-0.5c0.3-1,0.5-1.9,0.6-2.8L44.5,208.2z M49.4,207.6h-6.6v-1.2h2.7v-1h-2.4v-1.1
			h2.4v-0.8h-2.4v-5.2h5.9v5.2h-2.3v0.8h2.3v1.1h-2.3v1h2.7V207.6z M45.6,202.4v-3.1h-1.4v3.1H45.6z M45.3,201.9l-0.6,0.2
			c0-0.8-0.1-1.5-0.3-2.1l0.6-0.2C45.1,200.4,45.2,201.1,45.3,201.9z M46.1,210.8L45,211c0-0.7-0.1-1.6-0.3-2.7l1.1-0.1
			C46,208.9,46.1,209.8,46.1,210.8z M48,210.5l-1.1,0.2c-0.1-0.7-0.3-1.6-0.6-2.5l1.1-0.1C47.6,208.8,47.8,209.7,48,210.5z
			 M48.1,202.4v-3.1h-1.3v3.1H48.1z M47.9,199.9c-0.1,0.8-0.2,1.5-0.4,2.2l-0.6-0.2c0.2-0.6,0.3-1.4,0.4-2.2L47.9,199.9z
			 M49.5,210.1l-1.1,0.3c-0.1-0.7-0.3-1.5-0.6-2.3l1-0.2C49.2,208.5,49.4,209.3,49.5,210.1z M55.9,201.5h-3v2.5h2.5v7.1h-1.3v-0.8
			h-2.9v0.8h-1.3V204h1.7v-6H53v2.2h3V201.5z M54.1,209v-3.7h-2.9v3.7H54.1z"/>
		<path d="M61.2,203.4c0-0.5,0-1,0.2-1.5s0.4-0.9,0.7-1.2s0.7-0.6,1.1-0.8c0.4-0.2,0.9-0.3,1.5-0.3c0.5,0,0.9,0.1,1.3,0.2
			c0.4,0.1,0.8,0.3,1.1,0.6c0.3,0.3,0.5,0.6,0.7,1c0.2,0.4,0.3,0.8,0.3,1.3c0,0.5-0.1,0.9-0.2,1.2s-0.3,0.7-0.6,1
			c-0.2,0.3-0.5,0.5-0.8,0.8c-0.3,0.2-0.6,0.5-1,0.7c-0.3,0.2-0.7,0.4-1,0.6c-0.3,0.2-0.6,0.4-0.9,0.6c-0.3,0.2-0.5,0.5-0.7,0.7
			c-0.2,0.3-0.3,0.5-0.4,0.9h5.5v1.1h-6.9c0.1-0.6,0.2-1.2,0.3-1.6c0.2-0.4,0.4-0.8,0.7-1.2c0.3-0.3,0.6-0.6,0.9-0.9
			s0.7-0.5,1.1-0.7c0.4-0.3,0.8-0.5,1.2-0.8c0.3-0.2,0.6-0.5,0.8-0.7s0.4-0.5,0.5-0.8c0.1-0.3,0.2-0.6,0.2-1c0-0.3-0.1-0.6-0.2-0.8
			c-0.1-0.2-0.3-0.4-0.4-0.6c-0.2-0.2-0.4-0.3-0.7-0.4s-0.5-0.1-0.8-0.1c-0.4,0-0.7,0.1-1,0.2c-0.3,0.2-0.5,0.4-0.7,0.6
			s-0.3,0.5-0.4,0.8c-0.1,0.3-0.1,0.6-0.1,1H61.2z"/>
	</g>
</g>
</svg>
