<svg id="Layer_2" data-name="Layer 2" xmlns="http://www.w3.org/2000/svg" viewBox="0 0 477.3 264.1"><defs><style>.cls-1,.cls-3{fill:none;stroke:#000;stroke-linecap:round;stroke-linejoin:round;}.cls-1{stroke-width:0.67px;}.cls-2{isolation:isolate;}.cls-3{stroke-width:0.33px;}.cls-4{fill:#fff;}</style></defs><title>OJ103614615</title><path id="path34" class="cls-1" d="M127.4,214.5c0-10.2,14.2-18.5,31.6-18.5s31.6,8.3,31.6,18.5S176.5,233,159,233s-31.6-8.2-31.6-18.5"/><path id="path48" class="cls-1" d="M267.9,56.7c0-14.5,17-26.3,38.1-26.3s38.1,11.8,38.1,26.3S327.1,83,306,83s-38.1-11.8-38.1-26.3"/><path id="path64" class="cls-1" d="M389.8,233c0-10.6,16.6-19.3,37-19.3s37,8.6,37,19.3-16.6,19.3-37,19.3-37-8.6-37-19.3"/><g class="cls-2"><path d="M402.8,229.7h-.7c-.2,0-.3.1-.4.1h-1a2.81,2.81,0,0,0-1.1.1.52.52,0,0,0-.2.4.9.9,0,0,1-.1.5c-.1.6-.2,1-.2,1.2h.1a3.22,3.22,0,0,0,.8-.1,3.44,3.44,0,0,1,.9-.1,5.76,5.76,0,0,1,1-.2c.4,0,.5.1.5.3a.37.37,0,0,1-.4.4,10.87,10.87,0,0,1-1.5.2c-.9.1-1.5.2-1.5.3s-.1.4-.2.8a3.44,3.44,0,0,0-.1.9h0q0,.15.3.3h.7l.8-.1a4.4,4.4,0,0,0,1-.2,3.22,3.22,0,0,1,.8-.1.37.37,0,0,1,.3.1c.1.1.2.2.2.3s0,.2-.1.2a3.73,3.73,0,0,1-1.2.2c-.4,0-1,.1-1.9.2a3.44,3.44,0,0,1-.9.1c-.3,0-.6,0-.6-.1s-.1-.2-.2-.4v-.1h0a.77.77,0,0,1,.1-.3,5,5,0,0,0,.3-1.2,9.32,9.32,0,0,0,.2-1.4.6.6,0,0,1,.1-.4,14.93,14.93,0,0,0,.2-1.7.31.31,0,0,0-.1-.2h0c0-.1,0-.1-.1-.2v-.1h0c0-.1,0-.1.1-.2a.31.31,0,0,1,.2-.1h.4a5.81,5.81,0,0,0,1-.1q.9-.15,2.1-.3h.3a.75.75,0,0,1,.5.1c.1.1.1.2.2.3s0,.2-.1.2S402.9,229.7,402.8,229.7Z"/><path d="M403.5,230.1v-.2a.37.37,0,0,1,.1-.3,5.53,5.53,0,0,1,.9-.1,8.08,8.08,0,0,0,1.6-.1,10.4,10.4,0,0,0,2.1-.3c.4,0,.7-.1,1-.1h.5c.2,0,.3,0,.3.1s.1.1.2.2a.35.35,0,0,0,.1.2c0,.2-.1.3-.2.3H409a4.48,4.48,0,0,0-1.1.1c-.4,0-.7.1-.7.2s-.1.7-.2,1.7-.2,1.8-.2,2.3a2.49,2.49,0,0,0,.1.8v.1a.37.37,0,0,1-.1.3c-.1.1-.2.2-.3.2a.52.52,0,0,1-.4-.2,2.53,2.53,0,0,1-.2-1.2,25.64,25.64,0,0,1,.4-3.7v-.2c0-.1-.1-.1-.2-.1a4.59,4.59,0,0,0-1,.1c-.5,0-.8.1-1.1.1S403.6,230.2,403.5,230.1Z"/><path d="M413.2,229.1v.5l.1.2.3.9c.1.3.2.6.3,1a13.77,13.77,0,0,0,.8,2,3.08,3.08,0,0,0,.8,1.2l.3.3c0,.1.1.1.1.2a.35.35,0,0,1-.4.4c-.4,0-.8-.6-1.4-1.8-.2-.5-.3-.7-.4-.7a4.4,4.4,0,0,0-.9.1c-.5.1-.9.2-1.3.3a1,1,0,0,1-.4.1c-.1,0-.1,0-.2-.1h-.1c-.1,0-.2.2-.4.6-.4.6-.6,1-.7,1.1s-.2.2-.3.2a.37.37,0,0,1-.3-.1c-.1-.1-.2-.2-.2-.3s.1-.2.2-.4.3-.5.6-1q.9-1.35,1.5-2.4a11.7,11.7,0,0,1,1.2-2.1c.2-.2.3-.3.4-.3S413.1,229,413.2,229.1Zm.3,3.5a12.25,12.25,0,0,1-.5-1.3c-.2-.7-.4-1.1-.4-1.2-.2.3-.4.8-.7,1.4l-.8,1.5a2,2,0,0,1,.5-.1.75.75,0,0,0,.5-.1C412.9,232.7,413.4,232.6,413.5,232.6Z"/><path d="M423.8,229.1v.5l.1.2.3.9c.1.3.2.6.3,1a13.77,13.77,0,0,0,.8,2,3.08,3.08,0,0,0,.8,1.2l.3.3c0,.1.1.1.1.2a.35.35,0,0,1-.4.4c-.4,0-.8-.6-1.4-1.8-.2-.5-.3-.7-.4-.7a4.4,4.4,0,0,0-.9.1c-.5.1-.9.2-1.3.3a1,1,0,0,1-.4.1c-.1,0-.1,0-.2-.1h-.1c-.1,0-.2.2-.4.6-.4.6-.6,1-.7,1.1s-.2.2-.3.2a.37.37,0,0,1-.3-.1c-.1-.1-.2-.2-.2-.3s.1-.2.2-.4.3-.5.6-1q.9-1.35,1.5-2.4a11.7,11.7,0,0,1,1.2-2.1c.2-.2.3-.3.4-.3S423.7,229,423.8,229.1Zm.3,3.5a12.25,12.25,0,0,1-.5-1.3c-.2-.7-.4-1.1-.4-1.2-.2.3-.4.8-.7,1.4l-.8,1.5a2,2,0,0,1,.5-.1.75.75,0,0,0,.5-.1C423.5,232.7,424,232.6,424.1,232.6Z"/><path d="M430.2,232c-.2,0-.3.1-.5.3a4.19,4.19,0,0,0-.8,1.3c-.5.9-.8,1.5-.9,1.6a.76.76,0,0,1-.4.2.47.47,0,0,1-.5-.5,1.76,1.76,0,0,1,.1-.6,12.74,12.74,0,0,0,.2-2.8.76.76,0,0,1,.1-.4c.1-.1.2-.2.3-.2s.3,0,.3.1a3.54,3.54,0,0,1,.1.6,10.53,10.53,0,0,1-.3,1.8,1.76,1.76,0,0,0-.1.6v.1s.2-.3.6-1a7.64,7.64,0,0,1,1-1.5,1.22,1.22,0,0,1,.9-.4.55.55,0,0,1,.6.4,2.83,2.83,0,0,1,.4,1.3c.1.7.2,1.2.2,1.4s.2.3.3.3a.37.37,0,0,0,.3-.1h.1a.22.22,0,0,1,.2.2.54.54,0,0,1-.3.4,1.42,1.42,0,0,1-.6.2.86.86,0,0,1-.6-.3,6.19,6.19,0,0,1-.3-1.6C430.7,232.5,430.5,232,430.2,232Z"/><path d="M436.2,233.8A3.4,3.4,0,0,1,435,235a3,3,0,0,1-1.1.4.86.86,0,0,1-.6-.3.84.84,0,0,1-.2-.7,4,4,0,0,1,1-2.5,2.75,2.75,0,0,1,2.1-1.3.51.51,0,0,1,.5.4c0,.1.1.1.2.1s.4.1.4.3v.4a7.74,7.74,0,0,0-.2,1.8c0,.7.1,1.1.4,1.3.1.1.2.2.2.3s-.1.2-.2.3-.2.1-.4.1-.4-.2-.6-.5A2.27,2.27,0,0,1,436.2,233.8Zm-.3-2.5c-.4,0-.8.4-1.3,1.1a3.44,3.44,0,0,0-.8,1.8c0,.3.1.5.3.5s.8-.3,1.3-1a3.39,3.39,0,0,0,.9-1.8C436.3,231.5,436.2,231.3,435.9,231.3Z"/><path d="M440,228c.2,0,.3.1.3.4a7,7,0,0,1-.4,1.7,10.62,10.62,0,0,0-.4,1.9,10.36,10.36,0,0,0-.1,1.6,6.15,6.15,0,0,0,.1,1.4v.2a.6.6,0,0,1-.1.4c-.1.1-.2.2-.3.2a.27.27,0,0,1-.3-.3,2.22,2.22,0,0,1-.1-.9,17.13,17.13,0,0,1,.4-3.6,6.35,6.35,0,0,1,.6-2.5C439.8,228.1,439.9,228,440,228Z"/><path d="M444.3,233.9a5.27,5.27,0,0,1-1.4,1,2.3,2.3,0,0,1-.9.3.75.75,0,0,1-.7-.4,1.08,1.08,0,0,1-.2-.8,6.09,6.09,0,0,1,.3-1.7,4.93,4.93,0,0,1,.4-1.2.52.52,0,0,1,.4-.2c.1,0,.1,0,.2.1a.5.5,0,0,1,0,.6c-.2.3-.2.4-.2.5a4.2,4.2,0,0,0-.2.5,2.92,2.92,0,0,0-.2.9,1.09,1.09,0,0,0,.1.5.27.27,0,0,0,.3.3,1.27,1.27,0,0,0,.6-.1,9.22,9.22,0,0,0,.8-.5,3.81,3.81,0,0,0,.6-.5.76.76,0,0,0,.2-.5c0-.2.1-.6.1-1.1s.2-.9.4-.9.3,0,.3.1a2,2,0,0,1,.1.5v.7c0,.4-.1.6-.1.8a9.86,9.86,0,0,1-.3,2.4,7.71,7.71,0,0,1-.7,2,1.56,1.56,0,0,1-1.3.8,2.46,2.46,0,0,1-1.5-.5c-.4-.3-.7-.6-.7-.8a.37.37,0,0,1,.1-.3c0-.1.1-.1.2-.1a.1.1,0,0,1,.1.1,2,2,0,0,0,1.8.9c.4,0,.8-.4,1.1-1.1a8,8,0,0,0,.5-2.1C444.3,234.1,444.3,234,444.3,233.9Z"/><path d="M448.6,234.4c0-.2-.2-.4-.7-.7a5.35,5.35,0,0,1-1.2-.7.86.86,0,0,1-.3-.6,1.51,1.51,0,0,1,.9-1.4,3,3,0,0,1,1.4-.6.75.75,0,0,1,.5.1.52.52,0,0,1,.2.4c0,.1,0,.2-.1.2s-.1.1-.2.1a.31.31,0,0,1-.2-.1.35.35,0,0,1-.2-.1,4.18,4.18,0,0,0-.9.3c-.4.2-.7.5-.7.7a.52.52,0,0,0,.2.4,5.76,5.76,0,0,0,.9.5,5.58,5.58,0,0,1,.8.5.86.86,0,0,1,.3.6c0,.4-.3.8-.9,1.1a3.92,3.92,0,0,1-1.8.4c-.5,0-.7-.2-.7-.5a.22.22,0,0,1,.2-.2.37.37,0,0,1,.3-.1h.5a3.55,3.55,0,0,0,1-.2C448.3,234.7,448.5,234.6,448.6,234.4Z"/><path d="M451.1,234.4a2.49,2.49,0,0,0,.1.8v.1c0,.1,0,.1-.1.2a.37.37,0,0,1-.3.1c-.3,0-.4-.3-.4-.8a18.48,18.48,0,0,1,.3-2.6,3.22,3.22,0,0,0,.1-.8.9.9,0,0,1,.1-.5c.1-.1.2-.2.3-.2a.6.6,0,0,1,.4.1.31.31,0,0,1,.1.2.49.49,0,0,1-.1.3,9.54,9.54,0,0,0-.4,1.7C451.2,233.4,451.1,234,451.1,234.4Zm.5-4.9c-.1,0-.1-.1-.1-.2v-.1a1.09,1.09,0,0,1-.1-.5c0-.1.1-.2.2-.4a.76.76,0,0,1,.5-.2.37.37,0,0,1,.3.1c.1.1.2.1.2.2a1.09,1.09,0,0,1-.1.5,2.19,2.19,0,0,1-.3.5A2.14,2.14,0,0,1,451.6,229.5Z"/><path d="M455,234.4c0-.2-.2-.4-.7-.7a5.35,5.35,0,0,1-1.2-.7.86.86,0,0,1-.3-.6,1.51,1.51,0,0,1,.9-1.4,3,3,0,0,1,1.4-.6.75.75,0,0,1,.5.1.52.52,0,0,1,.2.4c0,.1,0,.2-.1.2s-.1.1-.2.1a.31.31,0,0,1-.2-.1.35.35,0,0,1-.2-.1,4.18,4.18,0,0,0-.9.3c-.4.2-.7.5-.7.7a.52.52,0,0,0,.2.4,5.76,5.76,0,0,0,.9.5,5.58,5.58,0,0,1,.8.5.86.86,0,0,1,.3.6c0,.4-.3.8-.9,1.1a3.92,3.92,0,0,1-1.8.4c-.5,0-.7-.2-.7-.5a.22.22,0,0,1,.2-.2.37.37,0,0,1,.3-.1h.5a3.55,3.55,0,0,0,1-.2C454.7,234.7,454.9,234.6,455,234.4Z"/></g><path id="path78" class="cls-1" d="M18.4,44.4c0-11.1,13.1-20.2,29.2-20.2s29.2,9,29.2,20.2S63.7,64.6,47.6,64.6,18.4,55.5,18.4,44.4"/><path id="path92" class="cls-1" d="M388.1,32.2c0-11.3,18.8-20.5,42-20.5s42,9.2,42,20.5-18.8,20.5-42,20.5-42-9.2-42-20.5"/><path id="path108" class="cls-1" d="M7.4,175.5c0-11.1,13-20.2,29.1-20.2s29.1,9,29.1,20.2-13,20.2-29.1,20.2S7.4,186.6,7.4,175.5"/><path id="path122" class="cls-1" d="M295.5,140.6c0-9.9,15.6-18,34.9-18s34.9,8,34.9,18-15.6,18-34.9,18-34.9-8-34.9-18"/><path id="path150" class="cls-1" d="M405.1,105.7c0-12.6,13-22.8,28.9-22.8s28.9,10.2,28.9,22.8S450,128.5,434,128.5s-28.9-10.2-28.9-22.8"/><path id="path166" class="cls-1" d="M257.4,243.6c0-10.5,16-19,35.8-19s35.8,8.5,35.8,19-16,19-35.8,19-35.8-8.5-35.8-19"/><path id="path175" class="cls-1" d="M93.7,32.9c0-11.7,18.2-21.2,40.6-21.2S175,21.2,175,32.9s-18.2,21.2-40.7,21.2S93.7,44.6,93.7,32.9"/><g id="shape52-83"><path id="path198" class="cls-3" d="M183.59,141.69l-24.3,54.5"/></g><g id="shape58-89"><path id="path208" class="cls-3" d="M421.48,212.83l-84.7-140.6"/></g><path id="path220" class="cls-1" d="M13.4,241.4c0-11,16.6-20,37.2-20s37.2,9,37.2,20-16.6,20-37.2,20-37.2-8.9-37.2-20"/><g id="shape63-98"><path id="path227" class="cls-3" d="M237.49,96.87l34.9-25.1"/></g><g id="shape65-101"><path id="path232" class="cls-3" d="M342.67,62.75l62.4,43.1"/></g><g id="shape67-104"><path id="path237" class="cls-3" d="M333.48,37.72l54.8-8"/></g><g id="shape70-107"><path id="path242" class="cls-3" d="M83.19,97.16l86.3,23"/></g><g id="shape73-110"><path id="path247" class="cls-3" d="M74.5,111.46l62.3,90.2"/></g><g id="shape76-113"><path id="path252" class="cls-3" d="M181.46,227.66l75.9,16.1"/></g><g id="shape77-116"><path id="path257" class="cls-3" d="M217.73,149.2l55.9,78.5"/></g><g id="shape78-119"><path id="path262" class="cls-3" d="M295.68,140.18l-46.5-20"/></g><g id="shape79-122"><path id="path267" class="cls-3" d="M127.72,214.75l-61-28.6"/></g><g id="shape80-125"><path id="path272" class="cls-3" d="M136.79,227.7l-49,13.7"/></g><g id="shape81-128"><path id="path277" class="cls-3" d="M181.2,96.76l-107.9-42"/></g><g id="shape82-131"><path id="path282" class="cls-3" d="M310,82.94l4.7,40"/></g><g id="shape94-134"><path id="path287" class="cls-4" d="M308.56,108.29h-.3V107c0-.1.1,0,.1,0h.2v.1l.1,1.1h0c0,.1,0,.1-.1.1Z"/></g><g id="shape96-136"><path id="path292" class="cls-3" d="M270.48,28.26l8.9,8.5"/></g><g id="shape97-139"><path id="path297" class="cls-3" d="M175.17,36.36l92.3,16.1"/></g><path id="path78-2" data-name="path78" class="cls-1" d="M24.6,97c0-11.1,13.1-20.2,29.2-20.2S83,85.8,83,97s-13.1,20.2-29.2,20.2S24.6,108.1,24.6,97"/><path id="path175-2" data-name="path175" class="cls-1" d="M201.1,17.8c0-8.7,17.4-15.9,38.8-15.9S278.7,9,278.7,17.8s-17.4,15.9-38.8,15.9-38.8-7.1-38.8-15.9"/><path id="path78-3" data-name="path78" class="cls-1" d="M170.2,119.2c0-16.5,17.5-30,38.9-30,21.6,0,38.9,13.4,38.9,30s-17.5,30-38.9,30c-21.4-.2-38.9-13.5-38.9-30"/><path d="M125.56,28.83a6.26,6.26,0,0,1-1.29,1.28l-.33-.35a6.12,6.12,0,0,0,1.27-1.19Zm3.36-2.67H124v-.43h2.3a3.28,3.28,0,0,0-.27-.56h-1.5v-2.3h3.86v2.3h-1.82c.06.14.14.32.23.56h2.15Zm-.62,2.11h-1.59v1.64a.54.54,0,0,1-.2.47,1.06,1.06,0,0,1-.64.15h-.35l-.15-.43H126c.14,0,.22-.1.22-.27V28.27H124.6V26.71h3.7Zm-.41-4.5V23.3H125v.47Zm0,1v-.51H125v.51Zm0,3.1v-.7h-2.78v.7Zm.6,2-.39.27a6.31,6.31,0,0,0-.78-1.22l.37-.26A5.41,5.41,0,0,1,128.44,29.78Zm3.44-1.8a9,9,0,0,1-3,2.57l-.29-.39a7.84,7.84,0,0,0,2.93-2.53Zm-.23-5a7.75,7.75,0,0,1-2.61,2l-.28-.37a7,7,0,0,0,2.57-2Zm.09,2.43a8.42,8.42,0,0,1-2.7,2.12l-.27-.4A7.92,7.92,0,0,0,131.4,25Z"/><path d="M139.49,30.55H139V27.47h-4a7.06,7.06,0,0,1-1.23,3.1l-.41-.34a8.35,8.35,0,0,0,1.32-5.12V22.83h.48v2h3.47V22.66h.49v2.6h-4q0,1-.09,1.74h4.42Z"/><path d="M122.78,41.12H115v-.45h1V38.49h5.86v2.18h1Zm-3.5-7h-1.73v.75h1.26v1.72h-1.25v.8h1.62v.44h-3.82V33.67h3.92Zm-2.17.75v-.75h-1.28v.75Zm1.23,1.29V35.3h-2.51v.85Zm-1.23,1.23v-.8h-1.28v.8Zm.63,3.29V39H116.4v1.71Zm1.81,0V39h-1.36v1.71Zm3.21-5.48h-2.51a5.25,5.25,0,0,1-.81,1.13l-.37-.3a6.29,6.29,0,0,0,1.43-2.59l.44.14a6.88,6.88,0,0,1-.47,1.18h2.29Zm-.22,2h-2.86v-.45h2.86Zm-1.22,3.45V39H120v1.71Z"/><path d="M127.23,38.48l-.35.32a9.82,9.82,0,0,0-1.06-1.34V41.3h-.45V37.91c-.23.26-.59.61-1.07,1.05l-.34-.32a8.27,8.27,0,0,0,2.43-3.07h-2.21v-.45h2.71v.45a13.12,13.12,0,0,1-.83,1.5A7.93,7.93,0,0,1,127.23,38.48ZM126.1,34.7l-.45.18a6.35,6.35,0,0,0-.74-1.19l.41-.22A5.26,5.26,0,0,1,126.1,34.7Zm5.7,5a2.6,2.6,0,0,1-.13.92.83.83,0,0,1-.31.46,1.08,1.08,0,0,1-.61.13c-.45,0-.73-.08-.84-.22a.71.71,0,0,1-.17-.43V38.43h-1a3.25,3.25,0,0,1-.33,1.45,3,3,0,0,1-.88,1.08,2,2,0,0,1-.7.39h0l-.29-.38a2.61,2.61,0,0,0,1.76-2.54h-.86v-4.7h3.75v4.7h-1v2.06c0,.18.18.27.55.27a.5.5,0,0,0,.43-.18,2.53,2.53,0,0,0,.18-1Zm-1.08-4.55v-1h-2.8v1Zm0,1.39v-.95h-2.8v.95Zm0,1.44V37h-2.8v1Z"/><path d="M136.25,35.15l-.35.31a8.52,8.52,0,0,0-1.16-1.26,13.94,13.94,0,0,1-1.07,1.46h2.06v.45h-.91v1H136v.44h-1.15v2.84c.2,0,.53-.12,1-.25v.44c-.8.22-1.72.43-2.76.64l-.09-.42c.54-.1,1-.2,1.42-.3v-3h-1.3V37.1h1.3v-1h-.79v-.34c-.12.12-.25.25-.41.39l-.25-.36a10.77,10.77,0,0,0,1.74-2.36l.41.2,0,.11a.18.18,0,0,0,0,.08A11.78,11.78,0,0,1,136.25,35.15ZM134,40l-.4.11a12.92,12.92,0,0,0-.44-1.82l.42-.15A10,10,0,0,1,134,40ZM136,38.21a8,8,0,0,1-.34,1.56l-.42-.12a8.66,8.66,0,0,0,.35-1.57Zm2,1.11a10.45,10.45,0,0,1-1.58,1.37l-.29-.36A11.41,11.41,0,0,0,137.63,39Zm2.87-2.21H138.7V40.8a.53.53,0,0,1-.17.38,1.25,1.25,0,0,1-.8.17l-.34,0-.16-.46h.85a.16.16,0,0,0,.13-.07.18.18,0,0,0,0-.13V37.11h-2v-.44h2.68l.28-.82h-2.58c.25-.56.55-1.34.89-2.36H138l-.22.65h2.43c-.3,1-.57,1.88-.8,2.53h1.4Zm-3,1.19-.34.36a4,4,0,0,0-1.1-.79l.3-.38A6.36,6.36,0,0,1,137.77,38.3Zm1.82-3.77h-2a8.67,8.67,0,0,1-.31.88h2C139.45,35,139.53,34.74,139.59,34.53Zm1.24,5.84-.33.34a7.85,7.85,0,0,0-1.43-1.35l.31-.35A9.23,9.23,0,0,1,140.83,40.37Zm-.21-2.52a5.88,5.88,0,0,1-1.19.75l-.28-.37a5.37,5.37,0,0,0,1.18-.72Z"/><path d="M143.56,39.63a6.26,6.26,0,0,1-1.29,1.28l-.33-.35a6.12,6.12,0,0,0,1.27-1.19ZM146.92,37H142v-.43h2.3A3.28,3.28,0,0,0,144,36h-1.5v-2.3h3.86V36h-1.82c.06.13.14.32.23.56h2.15Zm-.62,2.11h-1.59v1.64a.54.54,0,0,1-.2.47,1.06,1.06,0,0,1-.64.15h-.35l-.15-.43H144c.14,0,.22-.1.22-.27V39.07H142.6V37.51h3.7Zm-.41-4.5V34.1H143v.47Zm0,1V35H143v.51Zm0,3.1v-.7h-2.78v.7Zm.6,1.95-.39.27a6.31,6.31,0,0,0-.78-1.22l.37-.26A5.41,5.41,0,0,1,146.44,40.58Zm3.44-1.8a9,9,0,0,1-3,2.57l-.29-.39a7.84,7.84,0,0,0,2.93-2.53Zm-.23-5.05a7.65,7.65,0,0,1-2.61,2l-.28-.37a7,7,0,0,0,2.57-2Zm.09,2.44a8.42,8.42,0,0,1-2.7,2.12l-.27-.4a7.92,7.92,0,0,0,2.63-2Z"/><path d="M46.84,46.31l-.11.54c-2.13,0-3.56,0-4.31-.05a5.38,5.38,0,0,1-1.78-.35,3.66,3.66,0,0,1-1.15-.76A6.81,6.81,0,0,1,38.33,47l-.39-.33a5.9,5.9,0,0,0,2-3.21H38.24V43a23.25,23.25,0,0,0,1.58-2H38.05v-.48h2.37v.48c-.49.71-1,1.39-1.51,2h1.55v.49a10.18,10.18,0,0,1-.71,1.79,3.07,3.07,0,0,0,1.09.76,5.49,5.49,0,0,0,1.79.3c.77,0,1.57,0,2.41,0C45.7,46.34,46.31,46.33,46.84,46.31Zm-6.7-6.58-.4.35a9.65,9.65,0,0,0-1.44-1.44l.42-.35A11,11,0,0,1,40.14,39.73Zm6,2.64H42v2.75a9.14,9.14,0,0,0,1.76-.49l0,.52a23.11,23.11,0,0,1-2.29.63l-.21-.49a.32.32,0,0,0,.19-.28V38.74h4.66Zm-.52-2.12v-1H42v1Zm0,1.62V40.75H42v1.12Zm1,1.17a11.55,11.55,0,0,1-1.49,1,18.44,18.44,0,0,1,1.47,1.26l-.36.39a16.05,16.05,0,0,0-3.15-2.39l.34-.39,1.25.82a8.2,8.2,0,0,0,1.57-1.07Z"/><path d="M56.32,47h-.56v-.86H49V47h-.54V38.46h7.83Zm-.56-1.39V39H49v6.61Zm-1.48-1.56h-3.8V40.46h3.8Zm-.53-.52V41H51v2.54Z"/><path d="M48,91.74a8.7,8.7,0,0,1-3.06,2.37h2.53v2.25h-2.2l-.14,1.21h2.34a11.33,11.33,0,0,1-.1,1.86,1.79,1.79,0,0,1-.29.76.89.89,0,0,1-.43.28,6.41,6.41,0,0,1-1.31.07l-.87,0-.13-.57,1.84,0a.54.54,0,0,0,.57-.38,4.29,4.29,0,0,0,.15-1.49H44.48l.23-2.28h2.18V94.66H44.78v-.49c-.36.17-.71.31-1,.43l-.34-.49a7.9,7.9,0,0,0,1.84-.81,4.63,4.63,0,0,0-1-.72l.31-.42a6.66,6.66,0,0,1,1.19.85,6.1,6.1,0,0,0,1.5-1.27H44.47V91.2H48Zm4.94,8.43-.39.43a21.87,21.87,0,0,0-2-1.41,9,9,0,0,1-2.4,1.41l-.4-.43a8.73,8.73,0,0,0,2.34-1.29l-1.8-1.08.32-.39h-.49v-.56h4a5.36,5.36,0,0,1-1.18,2A15,15,0,0,1,52.91,100.17Zm-.3-3.86h-1.2a.62.62,0,0,1-.43-.16.56.56,0,0,1-.18-.44v-1H49.44a2.35,2.35,0,0,1-1,1.88L48,96.15a2.24,2.24,0,0,0,1-2h2.44v1.45c0,.13.08.2.24.2h1ZM53,94.08l-.27.49a7.4,7.4,0,0,1-4.21-3.47l.52-.22a6.3,6.3,0,0,0,.73,1.05A8.26,8.26,0,0,0,50.7,91l.5.23a7.91,7.91,0,0,1-1.07,1.11,4,4,0,0,0,.74.64,7,7,0,0,0,1.18-1l.45.3a8.38,8.38,0,0,1-1.14,1A8.46,8.46,0,0,0,53,94.08Zm-1.68,3.33H48.68c.69.38,1.3.75,1.83,1.1A4.11,4.11,0,0,0,51.31,97.41Z"/><path d="M57.75,98.5a13.72,13.72,0,0,1-2.91,1.78l-.46-.47a11.46,11.46,0,0,0,2.91-1.7ZM64,91.77H60.77v.84H63.3v2.21H55.23V92.61h2.51v-.84H54.46v-.55H64ZM64,97.57H59.53v3H59v-3H54.54V97H64Zm-.66-1.43H55.22v-.53h8.07Zm-5.55-1.88v-1.1h-2v1.1Zm2.48-1.65v-.84H58.3v.84Zm0,1.65v-1.1H58.3v1.1ZM64,99.91l-.43.39a18.23,18.23,0,0,0-2.86-1.72l.38-.47A19.87,19.87,0,0,1,64,99.91Zm-1.24-5.65v-1.1h-2v1.1Z"/><path d="M23.81,174.74a11.29,11.29,0,0,1-1.17,2.33l-.46-.22a10.79,10.79,0,0,0,1.18-2.27Zm5.63-1.45H26.35v.83h-.47v-.83h-3v-2.48h3v-1.06h.47v1.06h3.09Zm-3.56-.46v-1.56H23.31v1.56Zm2.37,3.2a3.62,3.62,0,0,1-.25,1.09.7.7,0,0,1-.38.33,4.41,4.41,0,0,1-1,.07l-1.16,0a1.87,1.87,0,0,1-.63-.09.57.57,0,0,1-.23-.21.89.89,0,0,1-.09-.45v-2.23h.47v2.26a.24.24,0,0,0,.22.26,9.53,9.53,0,0,0,1,0,8,8,0,0,0,1.26-.06c.19,0,.31-.42.38-1.15Zm-1.1-.3-.45.2a8.39,8.39,0,0,0-1-1.35l.41-.2A9.15,9.15,0,0,1,27.15,175.73Zm1.82-2.9v-1.56H26.35v1.56Zm1.08,4-.42.19a12.14,12.14,0,0,0-1.33-2.2l.41-.22A11.83,11.83,0,0,1,30.05,176.82Z"/><path d="M33.89,171.15H31.23v-.45h1.15a3.33,3.33,0,0,0-.37-.85l.43-.16a4.66,4.66,0,0,1,.44,1h1Zm-.19,1.31H31.43V172H33.7Zm0,1.28H31.43v-.45H33.7Zm-.15,3.65h-.46v-.48H31.94v.7h-.45v-3h2.06Zm-.46-.92v-1.41H31.94v1.41Zm5.94-.59a5.3,5.3,0,0,1-.27,1.29c-.13.3-.31.46-.55.46-.42,0-.75-.52-1-1.56a8.31,8.31,0,0,1-1.32,1.34l-.32-.36a7.42,7.42,0,0,0,1.53-1.57,36.71,36.71,0,0,1-.33-3.83h-2v1.13h1.45c0,.86,0,1.55,0,2.06a5.54,5.54,0,0,1-.07.95.54.54,0,0,1-.22.28,1.17,1.17,0,0,1-.57.11l-.29,0L35,175.7h.55c.14,0,.23-.12.25-.36s0-.94,0-2.12h-1a13.63,13.63,0,0,1-.54,4.33l-.44-.2a13.21,13.21,0,0,0,.53-4.05V171.2h2.43c0-.24,0-.71,0-1.39h.45l0,1.39H39v.45H37.27a24.8,24.8,0,0,0,.25,3.15,11.06,11.06,0,0,0,.89-2.32l.42.24a12.21,12.21,0,0,1-1.22,2.83,5.81,5.81,0,0,0,.25,1,2.8,2.8,0,0,0,.2.45.17.17,0,0,0,.12,0,.21.21,0,0,0,.13,0,2.63,2.63,0,0,0,.14-.52,7.81,7.81,0,0,0,.14-.87Zm-.24-5.08-.42.25a3.84,3.84,0,0,0-.56-.89l.34-.24A3.64,3.64,0,0,1,38.79,170.8Z"/><path d="M48,171h-6.5v2.51a7.63,7.63,0,0,1-1,4l-.41-.3A7.78,7.78,0,0,0,41,173v-2.51h3.32a4.3,4.3,0,0,0-.44-.67l.53-.13c.18.29.34.56.46.8H48Zm.21,6.28-.29.43a11.42,11.42,0,0,1-3-.86,10.55,10.55,0,0,1-3.34.82l-.24-.46a9.94,9.94,0,0,0,3-.62,4.52,4.52,0,0,1-1.62-1.66h-.33v-.47H46.9v.47a4,4,0,0,1-1.56,1.64A11.93,11.93,0,0,0,48.16,177.26ZM48,172.42H46.4v1.46H43.17v-1.46H41.81V172h1.36v-.73h.47V172h2.3v-.73h.46V172H48Zm-1.62,2.49H43.24a3.67,3.67,0,0,0,1.57,1.4A3.72,3.72,0,0,0,46.33,174.91Zm-.39-1.48v-1h-2.3v1Z"/><path d="M30.83,236.06q-.09.28-.36.93l-.26.62v6.18h-.47v-5.28a9.19,9.19,0,0,1-.94,1.39l-.26-.43a12.79,12.79,0,0,0,1.88-3.59Zm5.63,1.23H33.8v1.07H36v2.32H33.76a4,4,0,0,1-.45,1.73,8.35,8.35,0,0,0,3.14.92l-.18.45a8.14,8.14,0,0,1-3.24-1,3.46,3.46,0,0,1-2.26,1l-.19-.43a3.39,3.39,0,0,0,2.06-.86,5.06,5.06,0,0,1-1.29-1.28l.39-.22a5.22,5.22,0,0,0,1.16,1.13,3.17,3.17,0,0,0,.39-1.47H31.07v-2.32h2.26v-1.07H30.78v-.44h2.55v-.91h.47v.91h2.66Zm-3.15,1.51H31.55v1.43h1.74C33.31,239.71,33.32,239.23,33.31,238.8Zm2.24,1.43V238.8H33.81c0,.47,0,.95,0,1.43Z"/><path d="M45,243.11a.55.55,0,0,1-.26.51,3.16,3.16,0,0,1-1.18.14h-.4l-.14-.49.65,0a2.38,2.38,0,0,0,.74-.06.18.18,0,0,0,.11-.17v-2.17H42v2.64h-.48v-2.64H39a5.93,5.93,0,0,1-.93,2.84l-.42-.3a5.61,5.61,0,0,0,.91-3.24v-4.13H45Zm-3.51-4.93v-1.63H39v1.63Zm0,2.25v-1.75H39v1.75Zm3-2.25v-1.63H42v1.63Zm0,2.25v-1.75H42v1.75Z"/><path d="M54.43,239h-3A11.07,11.07,0,0,1,49.91,240H53.4v3.7h-.47v-.46h-4v.46h-.47v-3a16.1,16.1,0,0,1-1.56.56l-.26-.42A13.35,13.35,0,0,0,50.68,239h-4v-.44H50v-1.29H47.48v-.45H50v-1h.48v1h1.82v.45H50.47v1.29h.81a18.08,18.08,0,0,0,2.23-2.29l.36.28a18.2,18.2,0,0,1-1.89,2h2.45Zm-1.5,2.46v-.95H49l-.13,0v.9Zm0,1.38v-.93h-4v.93Z"/><path d="M58.5,237.28H55.61v-.46H57a3.12,3.12,0,0,0-.42-.81l.44-.18a5.59,5.59,0,0,1,.49,1h1Zm-.23,1.23H55.75v-.44h2.52Zm0,1.38H55.75v-.46h2.52Zm0,3.75h-.46v-.56h-1.5v.64h-.44v-3h2.4Zm-.46-1v-1.42H56.33v1.42ZM63.43,241H61.3v2.77h-.47V241H58.7v-.47h2.13v-4h-2v-.46h4.43v.46h-2v4h2.13Zm-3.24-1.44-.44.2A11.19,11.19,0,0,0,59,237.6l.4-.2A10.75,10.75,0,0,1,60.19,239.53Zm3.05-1.94a9.56,9.56,0,0,1-.94,2.15l-.43-.21a9.31,9.31,0,0,0,.93-2.12Z"/><path d="M72.43,241.52H70.81v1.39a.78.78,0,0,1-.26.7,2,2,0,0,1-.93.15l-.67,0-.2-.47h.83a4.39,4.39,0,0,0,.59,0c.11,0,.17-.1.17-.27v-1.47H64.62v-.45h5.72v-.83H65.45v-.44h2.88V239H65v-.44h3.31V238h.46v.6h3.26V239H68.79v.81h2.86v.44h-.84v.83h1.62Zm-4-4.37H65.94a6.28,6.28,0,0,1-.9.94l-.37-.32a4.8,4.8,0,0,0,1.52-1.94l.46.16c-.12.23-.25.47-.41.72h2.21Zm-1.09,1-.45.19a3.22,3.22,0,0,0-.58-.69l.41-.19A2.55,2.55,0,0,1,67.36,238.11Zm.71,4.93-.38.29a7.71,7.71,0,0,0-1.34-1.21l.37-.31A7.71,7.71,0,0,1,68.07,243Zm4.25-5.89H69.47a4.05,4.05,0,0,1-.55.55l-.36-.27a4.19,4.19,0,0,0,1.12-1.57l.44.16a5.46,5.46,0,0,1-.35.69h2.55Zm-1.11.94-.45.23a3.31,3.31,0,0,0-.63-.71l.44-.22A3.47,3.47,0,0,1,71.21,238.09Z"/><path d="M152.81,216.27c0,.39-.23.58-.71.58h-.16l-.18-.47H152c.23,0,.35-.07.35-.21v-3.33h-.75v5.89h-.44v-5.89h-.73V217H150v-4.57h1.19v-1.52h.44v1.52h1.19Zm4.62-.83H154v2.67l1.34-.53.08.44q-1.27.54-1.86.75l-.17-.41a.56.56,0,0,0,.15-.36v-2.56h-.37V215h.37v-3.91h3.74v.46H154v.8h2.9v.45H154v.86h2.9v.43H154V215h3.42Zm.13,2.94-.25.4a4.13,4.13,0,0,1-2.21-2.71l.4-.16a3.77,3.77,0,0,0,.41,1,5.84,5.84,0,0,0,1.15-1.05l.32.28a6.78,6.78,0,0,1-1.23,1.13A3.52,3.52,0,0,0,157.56,218.38Z"/><path d="M166.14,211.35a29.62,29.62,0,0,1-5.79.63v1.19h5.78v2.89h-5.86a4.81,4.81,0,0,1-1.28,2.76l-.34-.4a3.6,3.6,0,0,0,1-1.62,13.57,13.57,0,0,0,.25-3.18v-2.09a29.21,29.21,0,0,0,6-.61Zm-.5,4.23v-1.94h-5.28c0,.34,0,1,0,1.94Z"/><path d="M276.1,242.69l-.19.46a12,12,0,0,1-3.72-1,16.12,16.12,0,0,1-3.67,1l-.29-.45a15.56,15.56,0,0,0,3.41-.81,7.63,7.63,0,0,1-1.34-1,11.52,11.52,0,0,1-1.26.87l-.32-.37a5.92,5.92,0,0,0,2.34-2.06l.47.18a4.16,4.16,0,0,1-.42.59h3.49v.45a7.21,7.21,0,0,1-1.91,1.41A11.68,11.68,0,0,0,276.1,242.69Zm-.38-2.19h-.46v-1.44H269v1.41h-.47v-1.85H272a2.57,2.57,0,0,0-.4-.64l.51-.15a7.8,7.8,0,0,1,.44.79h3.18Zm-.91,5.24h-.47v-.39h-4.41v.39h-.47v-2.49h5.35Zm-.47-.86v-1.17h-4.41v1.17Zm-.42-4.38h-3.21l0,0a5.63,5.63,0,0,0,1.5,1.11A6.39,6.39,0,0,0,273.92,240.5Z"/><path d="M284.67,238.36a29.62,29.62,0,0,1-5.79.63v1.19h5.77v2.89H278.8a4.81,4.81,0,0,1-1.28,2.76l-.35-.41a3.51,3.51,0,0,0,1-1.61,13.61,13.61,0,0,0,.25-3.19v-2.08a29.21,29.21,0,0,0,6-.61Zm-.5,4.23v-1.94h-5.28c0,.34,0,1,0,1.94Z"/><path d="M289.23,245.11a.67.67,0,0,1-.15.44c-.1.13-.32.19-.68.19l-.6,0-.16-.47a6,6,0,0,0,.72,0,.84.84,0,0,0,.36-.05c.06,0,.08-.11.08-.22v-2.34h-1.54a10.22,10.22,0,0,1-.66,3.09l-.41-.3a10,10,0,0,0,.68-4v-3.35h2.36Zm-.43-2.88v-1.66h-1.47l0,1.66Zm0-2.11v-1.57h-1.47v1.57Zm5.3,5.29-.27.4a7,7,0,0,1-1.54-1.1,8.11,8.11,0,0,1-1.33,1l-.35-.33a6.37,6.37,0,0,0,1.36-1,6.94,6.94,0,0,1-1.26-2.83h-.25v4.2H290v-7.64h3.86a10,10,0,0,1-.24,1.83.73.73,0,0,1-.47.53,4.1,4.1,0,0,1-1.26.08l-.15-.47a4.35,4.35,0,0,0,.51,0,3.51,3.51,0,0,0,.72-.05.37.37,0,0,0,.25-.3,8.59,8.59,0,0,0,.13-1.21h-2.9v2.56h3.26a6,6,0,0,1-1.12,3.25A6,6,0,0,0,294.1,245.41Zm-.89-3.85h-2a6.06,6.06,0,0,0,1.11,2.45A5,5,0,0,0,293.21,241.56Z"/><path d="M298.64,240.8a3.92,3.92,0,0,1-.7,2.07l-.34-.33a4.06,4.06,0,0,0,.54-1.3h-.84v3.95a.66.66,0,0,1-.14.37c-.1.13-.34.19-.73.19l-.42,0-.26-.49c.38,0,.68,0,.89,0a.23.23,0,0,0,.14-.07.19.19,0,0,0,.08-.13v-3.25a10.85,10.85,0,0,1-1.37,2.58l-.31-.36a10.23,10.23,0,0,0,1.44-2.82h-1.4v-.44h2a7.9,7.9,0,0,0-1.38-1.22l.33-.3q.31.22.81.63a8.44,8.44,0,0,0,1-1.36h-2.42v-.44h2.93v.44a10.15,10.15,0,0,1-1.15,1.66l.3.34-.27.25Zm3.87,2.06a12.94,12.94,0,0,1-.15,1.65,2.48,2.48,0,0,1-.23.9,1.3,1.3,0,0,1-.31.26,3,3,0,0,1-1.16.08l-.21-.48.6,0a1.71,1.71,0,0,0,.59,0,.32.32,0,0,0,.14-.14,2.26,2.26,0,0,0,.13-.6c0-.33.09-.73.13-1.2h-1.51a3.35,3.35,0,0,1-2.23,2.48l-.34-.37a3.21,3.21,0,0,0,1.34-.82,2.64,2.64,0,0,0,.77-1.29h-1.43v-.44h1.54a6.66,6.66,0,0,0,.08-.9h.45a6.87,6.87,0,0,1-.07.89Zm.53-1.09-.26.4a6.17,6.17,0,0,1-1.94-1,6.48,6.48,0,0,1-1.72.94l-.32-.38a5.54,5.54,0,0,0,1.67-.86,5.19,5.19,0,0,1-.8-1l.39-.22a3.82,3.82,0,0,0,.77.93,3.4,3.4,0,0,0,.95-1.45h-1.92a6.76,6.76,0,0,1-1.06,1.11l-.35-.32a6.39,6.39,0,0,0,1.7-2.12l.44.17a5.1,5.1,0,0,1-.42.72h2.74v.44h-.64a4.27,4.27,0,0,1-1.07,1.74A6.33,6.33,0,0,0,303,241.77Z"/><path d="M311.54,243.06h-3.16v2.7h-.48v-2.7h-3.18v-3.58h3.18v-1.59h.48v1.59h3.16Zm-3.64-.48V240h-2.71v2.62Zm3.16,0V240h-2.68v2.62Z"/><path d="M314.86,240.87a17.89,17.89,0,0,1-1.26,3.87l-.44-.31a12.59,12.59,0,0,0,1.21-3.71Zm4.44,2.32a13.21,13.21,0,0,1-.16,1.42,1.88,1.88,0,0,1-.24.74.64.64,0,0,1-.36.24,5.37,5.37,0,0,1-1.07.07c-.42,0-.76,0-1,0a1,1,0,0,1-.6-.2.63.63,0,0,1-.18-.49v-5h.49v4.86a.36.36,0,0,0,.07.22.29.29,0,0,0,.15.11,6.48,6.48,0,0,0,.68,0h1.17a.41.41,0,0,0,.27-.12,1.59,1.59,0,0,0,.22-.78,7.92,7.92,0,0,0,.08-1.25Zm-.84-2.9-.41.33a9.57,9.57,0,0,0-2-2.45l.37-.34A12.13,12.13,0,0,1,318.46,240.29Zm2.58,3.92-.5.18a13.82,13.82,0,0,0-1.39-3.41l.44-.26A20,20,0,0,1,321,244.21Z"/><path d="M324.06,136.49h-2.65a13.25,13.25,0,0,1-.91,1l-.4-.28a7.29,7.29,0,0,0,1.55-1.92l.44.17a3.9,3.9,0,0,1-.37.6h2.34Zm3.56,3.88a10.48,10.48,0,0,1-.09,1.17,1.79,1.79,0,0,1-.26.9,1.15,1.15,0,0,1-.29.21,3.21,3.21,0,0,1-.74,0l-.8,0-.17-.47a13.65,13.65,0,0,0,1.37,0c.19,0,.32-.11.38-.34a5.58,5.58,0,0,0,.13-1.11h-2.83v2.43h-.45V141a8.56,8.56,0,0,1-3.54,2l-.23-.41a8.19,8.19,0,0,0,3.31-1.77h-2.79l.37-1.71h2.88v-.82h-3.33v-.42h6.8v1.68h-3v.84Zm-3.75,0v-.84h-2.49l-.17.84Zm-.83-3-.44.19a3,3,0,0,0-.53-.7l.43-.21A4,4,0,0,1,323,137.33Zm5-.84h-2.89a9.87,9.87,0,0,1-1,1l-.4-.29a6.44,6.44,0,0,0,1.61-1.85l.44.17a3.28,3.28,0,0,1-.36.56H328Zm-1.13,2.6v-.82h-2.56v.82Zm-.12-1.67-.45.15a2.82,2.82,0,0,0-.51-.73l.44-.18A3.33,3.33,0,0,1,326.76,137.42Z"/><path d="M337,143h-7.81v-.5H337Zm-.46-7h-6.9v-.49h6.9Zm-.37,3.36H330v-.51h6.16Z"/><path d="M346,137.32h-4.91c0,.47,0,1,0,1.56h3.85a20.58,20.58,0,0,1-.16,2.45,6.18,6.18,0,0,1-.29,1.41.82.82,0,0,1-.4.4,3.14,3.14,0,0,1-1.12.13h-.59l-.14-.51q.42,0,.84,0a2.72,2.72,0,0,0,.79-.07.56.56,0,0,0,.21-.24,7,7,0,0,0,.21-1.16,19.09,19.09,0,0,0,.15-2H341a5,5,0,0,1-2.53,3.88l-.38-.38a5.56,5.56,0,0,0,1.48-1.24,3.71,3.71,0,0,0,.84-1.65,13.31,13.31,0,0,0,.19-2.64h-2.38v-.49H342a6.35,6.35,0,0,0-.87-1.29l.46-.22a7.16,7.16,0,0,1,.95,1.51H346Z"/><path d="M219.58,18a11,11,0,0,1-1.29,1.91l-.37-.29a9,9,0,0,0,1.26-1.83Zm6.18-.55h-7.82V17h1.33V15.47h-1.15V15h1.15V13.92h.46V15h1.16V13.92h.46V15h1.17V13.92H223V15h1.2V13.92h.44V15h1v.46h-1V17h1.15Zm-.32-3.91h-6.15a5.66,5.66,0,0,1-.92.79L218,14a8.85,8.85,0,0,0,2-2l.46.17q-.31.43-.72.9h5.73ZM220.89,17V15.47h-1.16V17Zm.36,2.81-.46.09a8.36,8.36,0,0,0-.28-2l.45-.1A9.37,9.37,0,0,1,221.25,19.82ZM222.52,17V15.47h-1.17V17Zm1,2.75-.44.17a12.09,12.09,0,0,0-.7-1.94l.43-.17A10.94,10.94,0,0,1,223.51,19.76Zm.66-2.75V15.47H223V17Zm1.58,2.69-.41.22a10.17,10.17,0,0,0-1.11-1.9l.43-.21A11,11,0,0,1,225.75,19.7Z"/><path d="M234.78,19.56l-.35.36a8.81,8.81,0,0,1-3.61-5.44,8.66,8.66,0,0,1-3.58,5.42l-.33-.39a8.49,8.49,0,0,0,1.87-1.74,7.57,7.57,0,0,0,1.29-2.32,10.91,10.91,0,0,0,.48-3.41h.5a9,9,0,0,0,1,4.41A8.59,8.59,0,0,0,234.78,19.56Z"/><path d="M238.35,15.81l-.35.29a10.4,10.4,0,0,0-.56-.9v4.72H237V15.45a13.29,13.29,0,0,1-.87,2.08l-.26-.5A11.79,11.79,0,0,0,237,14.1h-1.06v-.44H237V12h.47v1.65h.67v.44h-.67v.48C237.76,15,238.06,15.38,238.35,15.81Zm5.46,2.69a3.62,3.62,0,0,1-.28,1.14A.56.56,0,0,1,243,20q-.59,0-1.29-1.23A7.4,7.4,0,0,1,240,19.88l-.32-.37a5.77,5.77,0,0,0,1.86-1.09A6.17,6.17,0,0,1,241,16.8h-1.65l-.06.54a5.68,5.68,0,0,1,1.27.88l-.26.38a4.8,4.8,0,0,0-1.07-.82,4.58,4.58,0,0,1-1.12,2.2l-.42-.29a3.85,3.85,0,0,0,1.18-2.89h-.8v-.45h2.84a39.37,39.37,0,0,1-.29-4.34l.46,0a32.14,32.14,0,0,0,.3,4.32h.91a4.53,4.53,0,0,0-.21-.43l.37-.15a2.4,2.4,0,0,1,.31.58h1v.45h-2.26a5,5,0,0,0,.43,1.27,5.18,5.18,0,0,0,.78-1.07l.35.22a5.83,5.83,0,0,1-1,1.25,3.36,3.36,0,0,0,.47.73c.2.23.35.35.45.35s.16-.08.23-.24a4.67,4.67,0,0,0,.21-1Zm-3.2-2.66-.41.11a2.05,2.05,0,0,0-.07-.41l-1.64.18-.07-.33a13.39,13.39,0,0,0,1-1.25l-.94.15-.12-.39a10.78,10.78,0,0,0,.92-1.83l.41.19a12.88,12.88,0,0,1-.8,1.53,6.63,6.63,0,0,0,.86-.13,7.91,7.91,0,0,0,.43-.73l.38.21A14.45,14.45,0,0,1,239,15.23c.29,0,.63-.05,1-.1a2.47,2.47,0,0,0-.19-.6l.4-.11A6.23,6.23,0,0,1,240.61,15.84Zm3.11,0-.4.12c0-.09,0-.23-.1-.42l-1.62.22-.12-.39q.57-.67.93-1.2c-.25,0-.55.08-.91.15l-.14-.39a10.12,10.12,0,0,0,.9-1.76l.41.18q-.37.78-.78,1.47l.85-.13c.12-.17.25-.38.4-.64l.39.2a20.29,20.29,0,0,1-1.42,2l1-.11a2.28,2.28,0,0,0-.17-.49l.4-.13A7.76,7.76,0,0,1,243.72,15.81Z"/><path d="M248,17.72A9.65,9.65,0,0,1,245.18,20l-.3-.4a9.25,9.25,0,0,0,2.73-2.15Zm4.73-.66h-7.86v-.47H247V14.32h-1.72v-.47H247V12.07h.49v1.78h2.73V12.07h.5v1.78h1.76v.47h-1.76v2.27h2.08Zm-2.59-.47V14.32h-2.73v2.27Zm2.43,3-.36.38a16.65,16.65,0,0,0-2.55-2.15l.34-.35A21.34,21.34,0,0,1,252.61,19.58Z"/><path d="M261.33,19.27a.53.53,0,0,1-.26.51,2.9,2.9,0,0,1-1.18.15h-.4l-.14-.49.65,0a2.55,2.55,0,0,0,.74-.05.18.18,0,0,0,.11-.17V17.06H258.3v2.63h-.48V17.06h-2.57a5.89,5.89,0,0,1-.93,2.83l-.42-.29a5.64,5.64,0,0,0,.91-3.25V12.22h6.52Zm-3.51-4.92V12.71H255.3v1.64Zm0,2.24V14.84H255.3v1.75Zm3-2.24V12.71H258.3v1.64Zm0,2.24V14.84H258.3v1.75Z"/><path d="M207.42,121.56h-.59V121h-7.75v-3.69h.58v3.12H203v-4.22h-3.43v-3.62h.59v3.05H203v-3.75h.56v3.75h2.8v-3.05h.58v3.62h-3.36v4.22h3.27v-3.13h.59Z"/><path d="M213,112.21a6.36,6.36,0,0,1-1.25,1.08v1.86h-.56v-1.5a15.33,15.33,0,0,1-1.52.7l-.33-.49a8,8,0,0,0,3.16-2Zm4.46,7.53H213l.34.32a12.46,12.46,0,0,1-3.55,1.52l-.36-.52a11.7,11.7,0,0,0,3.34-1.32h-1.54v-4.17h6.27Zm-.57-2.94v-.71h-5.12v.71Zm0,1.2v-.71h-5.12V118Zm0,1.2v-.7h-5.12v.7Zm1.92-5.4a1.51,1.51,0,0,1-.21.87.74.74,0,0,1-.63.33l-1.4,0c-1.4,0-2.18,0-2.33,0a.64.64,0,0,1-.39-.26.8.8,0,0,1-.15-.47v-2.32h.55v.71H218v.5h-3.75v1c0,.25.17.37.51.37h3.06a.32.32,0,0,0,.34-.2,2.25,2.25,0,0,0,.08-.7Zm.21,7.27-.3.52a16.39,16.39,0,0,0-3.1-1.1L216,120A19,19,0,0,1,219,121.07Z"/><path d="M283.55,58.42a11.46,11.46,0,0,1-1.3,1.9l-.37-.28a9,9,0,0,0,1.26-1.84Zm6.17-.55H281.9v-.45h1.34V55.88h-1.16v-.46h1.16V54.33h.45v1.09h1.16V54.33h.47v1.09h1.16V54.33h.45v1.09h1.2V54.33h.44v1.09h1v.46h-1v1.54h1.15ZM289.41,54h-6.16a5.52,5.52,0,0,1-.91.8l-.36-.33a9.06,9.06,0,0,0,2-2l.46.17q-.33.43-.72.9h5.73Zm-4.56,3.47V55.88h-1.16v1.54Zm.36,2.81-.45.09a9,9,0,0,0-.28-2l.45-.1A9.45,9.45,0,0,1,285.21,60.23Zm1.27-2.81V55.88h-1.16v1.54Zm1,2.75-.44.17a11.49,11.49,0,0,0-.7-1.94l.43-.17A10.46,10.46,0,0,1,287.47,60.17Zm.66-2.75V55.88h-1.2v1.54Zm1.58,2.7-.41.21a9.65,9.65,0,0,0-1.11-1.9l.44-.21A11.6,11.6,0,0,1,289.71,60.12Z"/><path d="M298.74,60l-.35.35a8.86,8.86,0,0,1-3.61-5.43,8.62,8.62,0,0,1-3.58,5.41l-.32-.38a9,9,0,0,0,1.87-1.75A7.88,7.88,0,0,0,294,55.86a11.25,11.25,0,0,0,.47-3.41h.5a9.14,9.14,0,0,0,1,4.41A8.77,8.77,0,0,0,298.74,60Z"/><path d="M302.31,56.22l-.35.3a8.42,8.42,0,0,0-.56-.9v4.71h-.46V55.86a12.73,12.73,0,0,1-.88,2.08l-.26-.5a11.48,11.48,0,0,0,1.13-2.92h-1.05v-.45h1.06V52.42h.46v1.65h.67v.45h-.67V55A13.8,13.8,0,0,1,302.31,56.22Zm5.47,2.69a4.28,4.28,0,0,1-.28,1.14.59.59,0,0,1-.52.38c-.39,0-.82-.41-1.28-1.22A7.79,7.79,0,0,1,304,60.29l-.32-.36a5.8,5.8,0,0,0,1.86-1.1,6.17,6.17,0,0,1-.54-1.62h-1.64l-.06.54a6.3,6.3,0,0,1,1.27.88l-.26.38a5,5,0,0,0-1.07-.82,4.59,4.59,0,0,1-1.13,2.2l-.41-.29a3.92,3.92,0,0,0,1.18-2.89H302v-.45h2.83a42,42,0,0,1-.29-4.34l.46,0a30,30,0,0,0,.31,4.32h.91l-.22-.42.37-.16a2.4,2.4,0,0,1,.32.58h1v.45h-2.26a4.6,4.6,0,0,0,.42,1.27,5.18,5.18,0,0,0,.78-1.07l.35.22a6.16,6.16,0,0,1-1,1.26,3.61,3.61,0,0,0,.48.72c.19.23.34.35.45.35s.16-.08.23-.24a4.73,4.73,0,0,0,.2-1Zm-3.21-2.66-.4.11a3.19,3.19,0,0,0-.07-.41l-1.65.18-.07-.33a14.85,14.85,0,0,0,.95-1.24l-.93.14-.12-.39a11.52,11.52,0,0,0,.92-1.82l.4.19a14.63,14.63,0,0,1-.8,1.53,8.11,8.11,0,0,0,.86-.14,7.91,7.91,0,0,0,.43-.73l.39.21a15.33,15.33,0,0,1-1.5,2.09c.3,0,.63,0,1-.09a2.9,2.9,0,0,0-.19-.61l.39-.11A5.88,5.88,0,0,1,304.57,56.25Zm3.12,0-.41.13a2.24,2.24,0,0,0-.1-.43l-1.61.22-.12-.39c.37-.45.68-.84.92-1.19-.24,0-.55.07-.91.14l-.13-.39a11.28,11.28,0,0,0,.9-1.76l.4.18c-.25.52-.51,1-.78,1.48l.86-.14c.11-.17.24-.38.39-.64l.39.2a18.43,18.43,0,0,1-1.41,2l1-.11a2.34,2.34,0,0,0-.16-.49l.39-.12A8.31,8.31,0,0,1,307.69,56.22Z"/><path d="M312.73,53.5h-2.52a8,8,0,0,1-1,1l-.36-.29a5.6,5.6,0,0,0,1.49-1.84l.44.18a4.32,4.32,0,0,1-.29.53h2.23Zm3.76,3H316V55.26h-6.46v1.25h-.46V54.83h3.39a2.21,2.21,0,0,0-.21-.49l.4-.15a2.33,2.33,0,0,1,.29.64h3.5Zm-.82,3.42h-5.05v.36h-.48V55.94h5.27v1.55h-4.79v.71h5.05Zm-.73-2.88v-.7h-4.32v.7Zm.27,2.44v-.87h-4.59v.87Zm-3.42-5.11-.41.18a4.52,4.52,0,0,0-.51-.74l.41-.17A3.75,3.75,0,0,1,311.79,54.39Zm4.92-.88h-2.88a6.48,6.48,0,0,1-.69.7l-.37-.26A5.44,5.44,0,0,0,314,52.41l.44.17c-.08.16-.18.32-.3.51h2.56Zm-1.32.94-.39.15a6.94,6.94,0,0,0-.46-.78l.42-.16A4.12,4.12,0,0,1,315.39,54.45Z"/><path d="M320.55,58.19q-1,.56-2.55,1.35l-.2-.4c.55-.26,1-.47,1.26-.64V56H318v-.44h1.05V53.51h-1.19v-.42h2.68v.42H319.5v2.06h.94V56h-.94v2.24a9.07,9.07,0,0,0,1-.55Zm5.17,2h-5.18v-.44h2.35V58.42h-2V58h2V56.87H321V52.68h4.35v4.19h-2V58h2.07v.44h-2.07v1.29h2.37Zm-2.83-5.61V53.12h-1.48v1.42Zm0,1.87V55h-1.48v1.43Zm2-1.87V53.12h-1.5v1.42Zm0,1.87V55h-1.5v1.43Z"/><path d="M409.75,28.31a5.15,5.15,0,0,1-.72,2l-.4-.28a3.46,3.46,0,0,0,.55-1.3h-1v3.7a.6.6,0,0,1-.21.45c-.13.13-.56.18-1.27.15l-.13-.45h.94a.33.33,0,0,0,.17-.1.34.34,0,0,0,.07-.17V28.77h-1.42v-.46h2a9.8,9.8,0,0,0-1.64-1.39l.25-.35c.2.13.5.34.89.65A7.83,7.83,0,0,0,408.84,26h-2.3v-.44h2.88V26a14.31,14.31,0,0,1-1.28,1.53,4.46,4.46,0,0,1,.58.6l-.15.19Zm4.4-2.41h-2a7.59,7.59,0,0,1-.28,1h1.85v4.38h-2.35l.28.29a7.27,7.27,0,0,1-1.88,1.57l-.31-.4a6.33,6.33,0,0,0,1.82-1.46h-1.15V26.93h1.25a6,6,0,0,0,.3-1h-1.87v-.46h4.34Zm-.89,2.3v-.82h-2.67v.82Zm0,1.3v-.87h-2.67v.87Zm0,1.36v-.93h-2.67v.93Zm.86,1.89-.29.37a9.77,9.77,0,0,0-1.7-1.2l.29-.35A10.59,10.59,0,0,1,414.12,32.75Z"/><path d="M416.94,28.7l-.33.33a7.44,7.44,0,0,0-1.34-1.25l.31-.36A8.65,8.65,0,0,1,416.94,28.7Zm.05,1.49a15.39,15.39,0,0,1-1.34,2.91l-.35-.3A13.08,13.08,0,0,0,416.58,30Zm.26-3.81-.33.35a6.86,6.86,0,0,0-1.36-1.14l.26-.33A5.64,5.64,0,0,1,417.25,26.38Zm2.87,4.75h-1.79l.26.18a7.21,7.21,0,0,1-1.27,1.83l-.37-.31a6,6,0,0,0,1.21-1.7h-.63V25.44h2.59Zm-.44-4V25.88H418v1.24Zm0,1.75v-1.3H418v1.3Zm0,1.81V29.31H418v1.37Zm.67,2-.39.23a5.2,5.2,0,0,0-.88-1.41l.37-.25A5.6,5.6,0,0,1,420.35,32.68Zm1.06-1.2H421V25.83h.46Zm1.44,1c0,.26-.07.44-.23.52a1.81,1.81,0,0,1-.84.13c-.22,0-.44,0-.66,0l-.12-.45a8.91,8.91,0,0,0,1.27,0c.09,0,.13-.12.13-.27V25.26h.45Z"/><path d="M425.22,27.22a10.58,10.58,0,0,1-.46,2.18l-.46-.12a11,11,0,0,0,.45-2.12Zm1.91.83-.3.35a7.51,7.51,0,0,0-.72-.75v5.43h-.47V25.22h.47V27A9.72,9.72,0,0,1,427.13,28.05Zm5,4.84H427v-.46h2.51V30.08h-2.08v-.46h2.08v-2h-1.31a7.62,7.62,0,0,1-.78,1.54l-.39-.25a8.81,8.81,0,0,0,1.17-3.13l.47.1a8.29,8.29,0,0,1-.31,1.26h1.15v-1.9H430v1.9h2v.48h-2v2h1.77v.46H430v2.35h2.13Z"/><path d="M436.48,25.41a8.42,8.42,0,0,1-2.87,3.71l-.33-.37A7.52,7.52,0,0,0,436,25.27Zm3.27,3.16a24.31,24.31,0,0,1-.17,2.6,5.49,5.49,0,0,1-.3,1.43.8.8,0,0,1-.4.39,2.31,2.31,0,0,1-.89.12c-.19,0-.43,0-.72,0l-.1-.48c.32,0,.63,0,.91,0a1.82,1.82,0,0,0,.52,0,1,1,0,0,0,.2-.15,1.93,1.93,0,0,0,.19-.59,9.77,9.77,0,0,0,.17-1.21c0-.49.07-1,.08-1.6h-2.31a5.37,5.37,0,0,1-3,4.17l-.29-.38a4.9,4.9,0,0,0,2.75-3.79h-1.7v-.48Zm1.45.12-.32.41a6.59,6.59,0,0,1-2.47-3.32h-.67V25.3h1A5.9,5.9,0,0,0,441.2,28.69Z"/><path d="M445.78,29.43l-.32.38a7.39,7.39,0,0,0-1.09-1.23v4.51h-.46V28.36a10.75,10.75,0,0,1-1.44,2.45l-.24-.47a11.84,11.84,0,0,0,1.64-3H442.4V26.9h1.51V25.23h.46V26.9h1.31v.46h-1.31V28A11.54,11.54,0,0,1,445.78,29.43Zm4.37-.86h-1.41v4.54h-.48V28.57h-1.72a12.11,12.11,0,0,1-.38,2.72,6.66,6.66,0,0,1-.88,1.87l-.38-.32a7.75,7.75,0,0,0,1.17-4.53V26.14a11.33,11.33,0,0,0,3.61-.85l.33.39a14,14,0,0,1-3.47.86v1.58h3.61Z"/><path d="M412.64,109.1a11.16,11.16,0,0,1-1.3,1.91l-.37-.28a9,9,0,0,0,1.26-1.84Zm6.17-.54H411v-.45h1.33v-1.54h-1.15v-.46h1.15V105h.46v1.09h1.16V105h.46v1.09h1.17V105H416v1.09h1.2V105h.44v1.09h1v.46h-1v1.54h1.15Zm-.32-3.92h-6.15a5.65,5.65,0,0,1-.92.8l-.36-.33a8.64,8.64,0,0,0,2-2l.46.17q-.32.43-.72.9h5.73Zm-4.55,3.47v-1.54h-1.16v1.54Zm.36,2.81-.46.09a8.43,8.43,0,0,0-.28-2l.46-.1A10.16,10.16,0,0,1,414.3,110.92Zm1.27-2.81v-1.54H414.4v1.54Zm1,2.75-.44.17a12.09,12.09,0,0,0-.7-1.94l.43-.17A11.23,11.23,0,0,1,416.56,110.86Zm.66-2.75v-1.54H416v1.54Zm1.58,2.7-.41.21a9.65,9.65,0,0,0-1.11-1.9l.43-.21A11,11,0,0,1,418.8,110.81Z"/><path d="M427.83,110.67l-.35.35a8.81,8.81,0,0,1-3.61-5.44,8.66,8.66,0,0,1-3.58,5.42l-.33-.38a8.79,8.79,0,0,0,1.87-1.75,7.69,7.69,0,0,0,1.3-2.32,11.25,11.25,0,0,0,.47-3.41h.5a9,9,0,0,0,1,4.41A8.7,8.7,0,0,0,427.83,110.67Z"/><path d="M431.4,106.91l-.35.3a10.4,10.4,0,0,0-.56-.9V111H430v-4.47a12.38,12.38,0,0,1-.87,2.08l-.26-.5a11.86,11.86,0,0,0,1.13-2.92H429v-.45H430v-1.65h.47v1.65h.67v.45h-.67v.48C430.81,106.08,431.11,106.48,431.4,106.91Zm5.46,2.69a3.62,3.62,0,0,1-.28,1.14.56.56,0,0,1-.51.38c-.39,0-.82-.41-1.29-1.22a7.72,7.72,0,0,1-1.73,1.08l-.32-.36a5.8,5.8,0,0,0,1.86-1.1,6.17,6.17,0,0,1-.54-1.62H432.4l-.06.54a6.38,6.38,0,0,1,1.28.88l-.26.38a5.15,5.15,0,0,0-1.08-.82,4.58,4.58,0,0,1-1.12,2.2l-.41-.29a3.88,3.88,0,0,0,1.17-2.89h-.8v-.45H434a42,42,0,0,1-.29-4.34l.46,0a31.87,31.87,0,0,0,.3,4.32h.91s-.09-.2-.21-.42l.37-.16a2.4,2.4,0,0,1,.31.58h1v.45h-2.25a4.6,4.6,0,0,0,.42,1.27,5.18,5.18,0,0,0,.78-1.07l.35.22a6.16,6.16,0,0,1-1,1.26,3.56,3.56,0,0,0,.47.72c.2.23.35.35.45.35s.16-.08.23-.24a4.53,4.53,0,0,0,.21-1Zm-3.2-2.66-.41.11a2.05,2.05,0,0,0-.07-.41l-1.64.18-.07-.33a14.85,14.85,0,0,0,.95-1.24l-.94.14-.11-.39a11.39,11.39,0,0,0,.91-1.82l.41.19a13.68,13.68,0,0,1-.8,1.52,6.63,6.63,0,0,0,.86-.13,7.91,7.91,0,0,0,.43-.73l.38.21a14.45,14.45,0,0,1-1.49,2.09c.29,0,.63,0,1-.09a3.63,3.63,0,0,0-.19-.61l.39-.11A5.88,5.88,0,0,1,433.66,106.94Zm3.11,0-.4.13a3.41,3.41,0,0,0-.1-.43l-1.62.22-.12-.39c.38-.45.69-.85.93-1.19-.25,0-.55.07-.91.14l-.13-.39a11.28,11.28,0,0,0,.9-1.76l.4.18q-.37.78-.78,1.47c.18,0,.47-.06.85-.13.12-.17.25-.38.4-.64l.39.2a20.29,20.29,0,0,1-1.42,2l1-.11a2.28,2.28,0,0,0-.17-.49l.4-.12A7.37,7.37,0,0,1,436.77,106.91Z"/><path d="M439.85,103.29l-.52,1.59V111h-.46V106a10.64,10.64,0,0,1-.66,1.31l-.3-.44a16.3,16.3,0,0,0,1.49-3.78Zm.67,7h-.44v-5.77h.44Zm5.33-3.57-.26.44a7.92,7.92,0,0,1-2.18-.91,8.94,8.94,0,0,1-2.36.91l-.24-.42A8.29,8.29,0,0,0,443,106a5.07,5.07,0,0,1-.9-1l.42-.2a3.62,3.62,0,0,0,.89.9,4.08,4.08,0,0,0,1.21-1.37h-2.44a5.32,5.32,0,0,1-1,1l-.4-.28a6.38,6.38,0,0,0,1.63-2l.49.12c-.16.28-.3.5-.41.67h3.27v.46h-.65A4.66,4.66,0,0,1,443.8,106,6.34,6.34,0,0,0,445.85,106.72Zm-2,.47a6.2,6.2,0,0,1-2.72,1.25l-.25-.4a5.65,5.65,0,0,0,2.59-1.15Zm1,.67a7,7,0,0,1-3.57,1.79l-.26-.44a6.35,6.35,0,0,0,3.45-1.64Zm.88.74a6.32,6.32,0,0,1-4.44,2.44l-.25-.43a5.94,5.94,0,0,0,4.26-2.25Z"/><path d="M449.64,108.88q-1,.56-2.55,1.35l-.2-.4c.55-.26,1-.47,1.25-.64V106.7h-1v-.44h1V104.2H447v-.42h2.69v.42h-1.05v2.06h.94v.44h-.94v2.24a9.07,9.07,0,0,0,1-.55Zm5.17,2h-5.19v-.44H452v-1.29h-2v-.44h2v-1.11H450v-4.19h4.36v4.19h-2v1.11h2.07v.44h-2.07v1.29h2.38ZM452,105.23v-1.42H450.5v1.42Zm0,1.87v-1.43H450.5v1.43Zm2-1.87v-1.42h-1.51v1.42Zm0,1.87v-1.43h-1.51v1.43Z"/></svg>