<svg xmlns="http://www.w3.org/2000/svg" viewBox="0 0 455.75 220.44"><title>OJ103614597</title><g id="Shapes"><rect x="0.5" y="141.37" width="176.99" height="49.51" fill="#fff"/><path d="M178.23,141.87v48.51H2.25V141.87h176m1-1H1.25v50.51h178Z" transform="translate(-1.25)"/><line x1="39.08" y1="141.47" x2="39.08" y2="116.21" fill="none" stroke="#000" stroke-miterlimit="10"/><circle cx="39.08" cy="111.4" r="4.81" fill="none" stroke="#000" stroke-miterlimit="10"/><line x1="138.9" y1="141.47" x2="138.9" y2="116.21" fill="none" stroke="#000" stroke-miterlimit="10"/><circle cx="138.9" cy="111.4" r="4.81" fill="none" stroke="#000" stroke-miterlimit="10"/><rect x="0.5" y="0.5" width="77.17" height="53.12" fill="#fff"/><path d="M78.42,1V53.12H2.25V1H78.42m1-1H1.25V54.12H79.42Z" transform="translate(-1.25)"/><line x1="39.08" y1="53.68" x2="39.08" y2="94.61" fill="none" stroke="#000" stroke-miterlimit="10"/><polygon points="34.1 93.15 39.08 101.78 44.07 93.15 34.1 93.15"/><rect x="100.31" y="0.5" width="77.17" height="53.12" fill="#fff"/><path d="M178.23,1V53.12H102.07V1h76.16m1-1H101.07V54.12h78.16Z" transform="translate(-1.25)"/><line x1="138.9" y1="53.68" x2="138.9" y2="94.61" fill="none" stroke="#000" stroke-miterlimit="10"/><polygon points="133.91 93.15 138.9 101.78 143.89 93.15 133.91 93.15"/><line x1="316.89" y1="141.47" x2="316.89" y2="116.21" fill="none" stroke="#000" stroke-miterlimit="10"/><circle cx="316.89" cy="111.4" r="4.81" fill="none" stroke="#000" stroke-miterlimit="10"/><line x1="416.7" y1="141.47" x2="416.7" y2="116.21" fill="none" stroke="#000" stroke-miterlimit="10"/><circle cx="416.7" cy="111.4" r="4.81" fill="none" stroke="#000" stroke-miterlimit="10"/><rect x="278.3" y="0.5" width="77.17" height="53.12" fill="#fff"/><path d="M356.22,1V53.12H280.05V1h76.17m1-1H279.05V54.12h78.17Z" transform="translate(-1.25)"/><line x1="316.89" y1="53.68" x2="316.89" y2="94.61" fill="none" stroke="#000" stroke-miterlimit="10"/><polygon points="311.9 93.15 316.89 101.78 321.87 93.15 311.9 93.15"/><rect x="378.12" y="0.5" width="77.17" height="53.12" fill="#fff"/><path d="M456,1V53.12H379.87V1H456m1-1H378.87V54.12H457Z" transform="translate(-1.25)"/><line x1="416.7" y1="53.68" x2="416.7" y2="94.61" fill="none" stroke="#000" stroke-miterlimit="10"/><polygon points="411.72 93.15 416.7 101.78 421.69 93.15 411.72 93.15"/><rect x="278.3" y="139.56" width="77.17" height="53.12" fill="#fff"/><path d="M356.22,140.06v52.12H280.05V140.06h76.17m1-1H279.05v54.12h78.17Z" transform="translate(-1.25)"/><rect x="378.12" y="139.56" width="77.17" height="53.12" fill="#fff"/><path d="M456,140.06v52.12H379.87V140.06H456m1-1H378.87v54.12H457Z" transform="translate(-1.25)"/></g><g id="Text"><text transform="translate(107.99 30.22)" font-size="14.5" font-family="SegoeUI, Segoe UI">v2 <tspan x="18.73" y="0" font-family="MicrosoftJhengHeiRegular, Microsoft JhengHei">用戶端</tspan></text><text transform="translate(7.96 30.22)" font-size="14.5" font-family="SegoeUI, Segoe UI">v1 <tspan x="18.73" y="0" font-family="MicrosoftJhengHeiRegular, Microsoft JhengHei">用戶端</tspan></text><text transform="translate(50.33 114.41)" font-size="14.5" font-family="SegoeUI, Segoe UI">v1</text><text transform="translate(74.5 169.24)" font-size="14.5" font-family="MicrosoftJhengHeiRegular, Microsoft JhengHei">服務</text><text transform="translate(31.32 216.68)" font-size="14.4" font-family="MicrosoftJhengHeiRegular, Microsoft JhengHei">服務支援兩種版本</text><text transform="translate(149.39 115.61)" font-size="14.5" font-family="SegoeUI, Segoe UI">v2</text><text transform="translate(385.8 30.22)" font-size="14.5" font-family="SegoeUI, Segoe UI">v2 <tspan x="18.73" y="0" font-family="MicrosoftJhengHeiRegular, Microsoft JhengHei">用戶端</tspan></text><text transform="translate(285.77 30.22)" font-size="14.5" font-family="SegoeUI, Segoe UI">v1 <tspan x="18.73" y="0" font-family="MicrosoftJhengHeiRegular, Microsoft JhengHei">用戶端</tspan></text><text transform="translate(328.14 114.41)" font-size="14.5" font-family="SegoeUI, Segoe UI">v1</text><text transform="translate(337.93 216.68)" font-size="14.4" font-family="MicrosoftJhengHeiRegular, Microsoft JhengHei">並排部署</text><text transform="translate(427.2 115.61)" font-size="14.5" font-family="SegoeUI, Segoe UI">v2</text><text transform="translate(292.93 163.39)" font-size="14.4" font-family="SegoeUI, Segoe UI">v1 <tspan x="18.6" y="0" font-family="MicrosoftJhengHeiRegular, Microsoft JhengHei">服務</tspan></text><text transform="translate(394.27 163.39)" font-size="14.4" font-family="SegoeUI, Segoe UI">v2 <tspan x="18.6" y="0" font-family="MicrosoftJhengHeiRegular, Microsoft JhengHei">服務</tspan></text></g></svg>