<svg xmlns="http://www.w3.org/2000/svg" viewBox="0 0 421.65 312.58"><defs><style>.cls-1{fill:none;stroke:#afafaf;stroke-miterlimit:10;stroke-width:6px;}.cls-2{fill:#afafaf;}.cls-3{fill:#3fa0ec;}.cls-4{fill:#8fb6cc;}.cls-5{fill:#2a3282;}.cls-12,.cls-6,.cls-8{fill:#fff;}.cls-10,.cls-11,.cls-7,.cls-8,.cls-9{isolation:isolate;}.cls-7{font-size:14.87px;fill:#213d47;}.cls-11,.cls-12,.cls-13,.cls-7,.cls-8,.cls-9{font-family:MicrosoftJhengHeiUIRegular, Microsoft JhengHei UI;}.cls-12,.cls-8{font-size:18px;}.cls-11,.cls-13,.cls-9{font-size:18.04px;fill:#0070c0;}.cls-11{letter-spacing:-0.03em;}</style></defs><title>OJ103514692</title><g id="Shapes"><line class="cls-1" x1="89.46" y1="232.67" x2="345" y2="228.83"/><polygon class="cls-2" points="91.76 240.11 78.7 232.83 91.54 225.16 91.76 240.11"/><line class="cls-1" x1="366" y1="71.19" x2="366" y2="185.43"/><polygon class="cls-2" points="358.52 183.24 366 196.19 373.48 183.24 358.52 183.24"/><rect class="cls-3" x="124.06" y="195" width="115.75" height="71.66" rx="8" ry="8"/><line class="cls-1" x1="76" y1="37.83" x2="331.54" y2="33.99"/><polygon class="cls-2" points="329.46 41.5 342.3 33.83 329.24 26.54 329.46 41.5"/><path class="cls-4" d="M68,4.19a4,4,0,0,1,4,4v250a4,4,0,0,1-4,4H8a4,4,0,0,1-4-4V8.19a4,4,0,0,1,4-4H68m0-4H8a8,8,0,0,0-8,8v250a8,8,0,0,0,8,8H68a8,8,0,0,0,8-8V8.19A8,8,0,0,0,68,.19Z"/><rect class="cls-3" x="124.06" width="115.75" height="71.66" rx="8" ry="8"/><path class="cls-5" d="M340.16,49V59.19c0,4.76,9.53,10.06,22.07,11h8.29c12.54-.89,22.07-5.11,22.07-10.06V11.93c0-5.3-11.84-10.42-26.32-10.42s-26.13,4.76-26.13,10.25V49Z"/><ellipse class="cls-6" cx="366.36" cy="11.67" rx="20.5" ry="6.5"/><path class="cls-5" d="M340.16,244v10.23c0,4.76,9.53,10.06,22.07,11h8.29c12.54-.89,22.07-5.11,22.07-10.06v-48.2c0-5.3-11.84-10.42-26.32-10.42s-26.13,4.76-26.13,10.25V244Z"/><ellipse class="cls-6" cx="366.36" cy="206.67" rx="20.5" ry="6.5"/><rect class="cls-3" x="312.39" y="102.1" width="107.94" height="49.19" rx="8" ry="8"/></g><g id="txt"><text class="cls-7" transform="translate(10.22 131.65) scale(1.21 1)">用戶端</text><text class="cls-8" transform="translate(344.65 132.64)">事件</text><text class="cls-9" transform="translate(258.71 20.61)">寫入</text><g class="cls-10"><text class="cls-11" transform="translate(260.48 213.61)">讀取</text></g><text class="cls-9" transform="translate(385.57 183.61)">更新</text><text class="cls-12" transform="translate(145.25 40.89)">命令模型</text><text class="cls-12" transform="translate(146.25 235.47)">查詢模型</text><text class="cls-13" transform="translate(321.9 289.5)">具體化檢視</text></g></svg>