<svg xmlns="http://www.w3.org/2000/svg" viewBox="0 0 800 325.43"><defs><style>.cls-1,.cls-3{fill:none;stroke:#afafaf;stroke-width:6px;}.cls-1{stroke-miterlimit:10;}.cls-2{fill:#afafaf;}.cls-3{stroke-linejoin:bevel;}.cls-4{fill:#3fa0ec;}.cls-5{fill:#8fb6cc;}.cls-6,.cls-7,.cls-8{isolation:isolate;}.cls-6,.cls-7{font-size:18px;}.cls-10,.cls-6,.cls-8,.cls-9{fill:#fff;}.cls-12,.cls-6,.cls-7,.cls-9{font-family:MicrosoftJhengHeiUIRegular, Microsoft JhengHei UI;}.cls-7{fill:#213d47;}.cls-8{font-size:17.97px;}.cls-10,.cls-8{font-family:ArialMT, Arial;}.cls-9{font-size:14px;}.cls-10{font-size:18.04px;}.cls-11{letter-spacing:-0.02em;}</style></defs><title>OJ103514640</title><g id="Shapes"><line class="cls-1" x1="576.76" y1="155.93" x2="700" y2="155.93"/><polygon class="cls-2" points="578.95 163.41 566 155.93 578.95 148.45 578.95 163.41"/><line class="cls-1" x1="319.76" y1="293.85" x2="703" y2="293.85"/><polygon class="cls-2" points="321.95 301.33 309 293.85 321.95 286.37 321.95 301.33"/><line class="cls-1" x1="564" y1="174.93" x2="689.24" y2="174.93"/><polygon class="cls-2" points="687.05 182.41 700 174.93 687.05 167.45 687.05 182.41"/><line class="cls-1" x1="319.76" y1="88.43" x2="706.01" y2="88.43"/><polygon class="cls-2" points="321.95 95.91 308.99 88.42 321.95 80.95 321.95 95.91"/><line class="cls-1" x1="309" y1="68.93" x2="689.24" y2="68.93"/><polygon class="cls-2" points="687.05 76.41 700 68.92 687.05 61.45 687.05 76.41"/><line class="cls-3" x1="308.99" y1="24.46" x2="691.24" y2="24.46"/><polygon class="cls-2" points="689.05 31.94 702.01 24.46 689.05 16.98 689.05 31.94"/><line class="cls-1" x1="188" y1="65.41" x2="211.24" y2="65.41"/><polygon class="cls-2" points="209.05 72.89 222 65.41 209.05 57.94 209.05 72.89"/><rect class="cls-4" x="477.55" y="104.93" width="88" height="145.04" rx="8" ry="8"/><path class="cls-5" d="M68,5.72a4,4,0,0,1,4,4v306a4,4,0,0,1-4,4H8a4,4,0,0,1-4-4V9.72a4,4,0,0,1,4-4H68m0-4H8a8,8,0,0,0-8,8v306a8,8,0,0,0,8,8H68a8,8,0,0,0,8-8V9.72A8,8,0,0,0,68,1.72Z"/><line class="cls-1" x1="74" y1="65.41" x2="98.24" y2="65.41"/><polygon class="cls-2" points="96.05 72.89 109 65.41 96.05 57.94 96.05 72.89"/><line class="cls-1" x1="309" y1="214.95" x2="331.24" y2="214.95"/><polygon class="cls-2" points="329.05 222.43 342 214.95 329.05 207.47 329.05 222.43"/><rect class="cls-4" x="700" width="100" height="48.93" rx="8" ry="8"/><rect class="cls-4" x="700" y="265.43" width="100" height="60" rx="8" ry="8"/><rect class="cls-4" x="700" y="55.18" width="100" height="204" rx="8" ry="8"/><rect class="cls-4" x="342.18" y="184.97" width="102.64" height="60" rx="8" ry="8"/><rect class="cls-4" x="221.45" y="1.59" width="88" height="257.34" rx="8" ry="8"/><rect class="cls-4" x="221.45" y="263.85" width="88" height="60" rx="8" ry="8"/><rect class="cls-4" x="108.73" y="33.59" width="80" height="63.66" rx="8" ry="8"/><line class="cls-1" x1="445" y1="214.97" x2="467.24" y2="214.97"/><polygon class="cls-2" points="465.05 222.45 478 214.97 465.05 207.49 465.05 222.45"/><line class="cls-1" x1="86.76" y1="293.85" x2="221" y2="293.85"/><polygon class="cls-2" points="88.95 301.33 76 293.85 88.95 286.37 88.95 301.33"/><rect class="cls-4" x="610" y="75.93" width="61.75" height="92" rx="8" ry="8"/></g><g id="Layer_2" data-name="Layer 2"><text class="cls-6" transform="translate(484.55 174.93)">背景工作</text><text class="cls-7" transform="translate(11.22 160.85)">用戶端</text><text class="cls-6" transform="translate(724.09 168.38)">資料庫</text><text class="cls-6" transform="translate(376.11 218.92)">佇列</text><text class="cls-8" transform="translate(246.47 297.79) scale(0.97 1)">CDN</text><text class="cls-6" transform="translate(624.77 125.88)">快取</text><text class="cls-9" transform="translate(120.73 61.53)">身分識別<tspan x="7" y="16.8">提供者</tspan></text><text class="cls-10" transform="translate(246.97 129.85)"><tspan class="cls-11">W</tspan><tspan x="16.7" y="0">eb </tspan><tspan class="cls-12"><tspan x="0.34" y="21.65">前端</tspan></tspan></text><text class="cls-9" transform="translate(723.09 30.51)">遠端服務</text><text class="cls-9" transform="translate(722 301.47)">靜態內容</text></g></svg>